<svg id="Сгруппировать_1419" data-name="Сгруппировать 1419" xmlns="http://www.w3.org/2000/svg" width="90.722" height="60" viewBox="0 0 90.722 60">
  <path id="Контур_491" data-name="Контур 491" d="M909.143,122.311v3.934h-3.914v3.9h-3.882v3.89h-3.881l.012,12.052,7.75,7.815.015,12.918h17.042v-12.9l7.817-7.85V134.032h-3.881v-3.9H922.3V126.25h-3.889v-3.939Z" transform="translate(-870.445 -122.311)" fill="#fff"/>
  <rect id="Прямоугольник_1425" data-name="Прямоугольник 1425" width="3.274" height="16.783" transform="translate(37.79 24.729)" fill="#ffd300"/>
  <path id="Контур_492" data-name="Контур 492" d="M926.891,180.1h0V159.408h0Zm-3.288,0h3.272V159.408H923.6Z" transform="translate(-881.915 -138.59)" fill="#ffd300"/>
  <path id="Контур_493" data-name="Контур 493" d="M933.835,183.16h0V166.377h0Zm-3.286,0h3.271V166.377h-3.271Z" transform="translate(-884.963 -141.649)" fill="#ffd300"/>
  <path id="Контур_494" data-name="Контур 494" d="M906.053,159.739l-3.288-3.286V148.6h3.288Z" transform="translate(-872.771 -133.849)" fill="#2b2422"/>
  <path id="Контур_495" data-name="Контур 495" d="M913,160.59l-3.292-3.305,0-15.673H913Z" transform="translate(-875.817 -130.781)" fill="#2b2422"/>
  <rect id="Прямоугольник_1426" data-name="Прямоугольник 1426" width="3.29" height="17.197" transform="translate(37.79 6.94)" fill="#2b2422"/>
  <rect id="Прямоугольник_1427" data-name="Прямоугольник 1427" width="3.315" height="17.202" transform="translate(41.662 3.018)" fill="#2b2422"/>
  <path id="Контур_496" data-name="Контур 496" d="M944.44,159.708l3.287-3.269v-7.855H944.44Z" transform="translate(-891.059 -133.841)" fill="#2b2422"/>
  <path id="Контур_497" data-name="Контур 497" d="M937.492,160.542l3.29-3.318V141.592h-3.29Z" transform="translate(-888.01 -130.772)" fill="#2b2422"/>
  <rect id="Прямоугольник_1428" data-name="Прямоугольник 1428" width="3.287" height="17.197" transform="translate(45.586 6.94)" fill="#2b2422"/>
  <path id="Контур_498" data-name="Контур 498" d="M876.269,217.4a1.515,1.515,0,0,0-.289-1.024,1.82,1.82,0,0,0-1.295-.321h-1.423a1.659,1.659,0,0,0-1.243.352,1.435,1.435,0,0,0-.311.993v1.93a1.449,1.449,0,0,0,.311,1,1.667,1.667,0,0,0,1.243.35h1.423a1.758,1.758,0,0,0,1.28-.322,1.655,1.655,0,0,0,.3-1.009Zm1.919,4.575a3.275,3.275,0,0,1-2.327.628h-3.718a3.438,3.438,0,0,1-2.337-.605,2.377,2.377,0,0,1-.659-1.836v-3.6a2.379,2.379,0,0,1,.659-1.834,3.446,3.446,0,0,1,2.337-.607h3.718a3.282,3.282,0,0,1,2.327.628,2.47,2.47,0,0,1,.623,1.813v3.6a2.457,2.457,0,0,1-.623,1.813" transform="translate(-858.018 -162.6)" fill="#2a2422"/>
  <path id="Контур_499" data-name="Контур 499" d="M898.049,221.972a3.262,3.262,0,0,1-2.321.628h-3.721a3.454,3.454,0,0,1-2.341-.605,2.377,2.377,0,0,1-.654-1.836v-3.6a2.379,2.379,0,0,1,.654-1.834,3.462,3.462,0,0,1,2.341-.607h3.721a3.269,3.269,0,0,1,2.321.628,2.458,2.458,0,0,1,.625,1.813v.835h-2.542a1.515,1.515,0,0,0-.291-1.024,1.813,1.813,0,0,0-1.292-.321h-1.424a1.666,1.666,0,0,0-1.243.352,1.443,1.443,0,0,0-.313.993v1.93a1.458,1.458,0,0,0,.313,1,1.674,1.674,0,0,0,1.243.35h1.424a1.81,1.81,0,0,0,1.292-.322,1.517,1.517,0,0,0,.291-1.025h2.542v.832a2.445,2.445,0,0,1-.625,1.813" transform="translate(-866.736 -162.6)" fill="#2a2422"/>
  <path id="Контур_500" data-name="Контур 500" d="M915.979,214.12v3.246h-4.562V214.12h-2.528l-.015,2.441v3.6l.015,2.441h2.528v-3.3h4.562v3.3h2.557V214.12Z" transform="translate(-875.451 -162.6)" fill="#2a2422"/>
  <path id="Контур_501" data-name="Контур 501" d="M932,219.3h-.727a1.552,1.552,0,0,0,.329,1.027,1.667,1.667,0,0,0,1.242.35H938.4V222.6h-6.67a3.457,3.457,0,0,1-2.342-.606,2.389,2.389,0,0,1-.652-1.836v-3.6a2.39,2.39,0,0,1,.652-1.834,3.465,3.465,0,0,1,2.342-.607h6.67v1.93h-5.552a1.66,1.66,0,0,0-1.242.352,1.433,1.433,0,0,0-.329.964H938.4v1.93Z" transform="translate(-884.168 -162.6)" fill="#2a2422"/>
  <path id="Контур_502" data-name="Контур 502" d="M981.222,214.12h-6.653v1.933h3.489V222.6h2.528v-6.547h3.633V214.12Z" transform="translate(-904.281 -162.6)" fill="#2a2422"/>
  <path id="Контур_503" data-name="Контур 503" d="M950.721,218.352c0-1.058.883-.944.883-.944h2.567V219.2h-2.585a.816.816,0,0,1-.865-.85m8.548.85h-2.584v-1.794h2.563s.881-.114.881.944a.813.813,0,0,1-.861.85m1.346-3.585h-3.929v-1.55h-2.506v1.55h-4.022a2.43,2.43,0,0,0-2.284,2.661,2.4,2.4,0,0,0,2.347,2.611h3.96v1.679h2.506v-1.679h3.866a2.4,2.4,0,0,0,2.348-2.611,2.43,2.43,0,0,0-2.285-2.661" transform="translate(-892.566 -162.577)" fill="#2a2422"/>
  <path id="Контур_504" data-name="Контур 504" d="M855.59,217.748h-3.746v-1.7h3.746a.849.849,0,0,1,0,1.7m2.75-3a3.278,3.278,0,0,0-2.326-.628h-6.7V222.6h2.528v-2.924h4.169a3.286,3.286,0,0,0,2.326-.626,2.467,2.467,0,0,0,.626-1.813v-.675a2.473,2.473,0,0,0-.626-1.813" transform="translate(-849.315 -162.6)" fill="#2a2422"/>
  <path id="Контур_505" data-name="Контур 505" d="M1000.906,219.824a.847.847,0,0,1-.847.848h-3.746v-1.7h3.746a.848.848,0,0,1,.847.85m2.528.338v-.674a2.474,2.474,0,0,0-.625-1.814,3.292,3.292,0,0,0-2.327-.626h-4.17l0-2.926h-2.528V222.6h6.7a3.287,3.287,0,0,0,2.327-.626,2.474,2.474,0,0,0,.625-1.813" transform="translate(-912.712 -162.6)" fill="#2a2422"/>
</svg>
