<svg width="390" height="844" viewBox="0 0 390 844" fill="none" xmlns="http://www.w3.org/2000/svg">
    <g clip-path="url(#clip0_309_2167)">
        <rect width="390" height="844" rx="30" fill="white"/>
        <rect x="141" y="831" width="134" height="5" rx="2.5" fill="#333333"/>
        <path d="M51.0034 19.7231C48.4053 19.7231 46.5542 21.4995 46.5542 23.9316V23.9482C46.5542 26.2227 48.1646 27.8994 50.4639 27.8994C52.1074 27.8994 53.1533 27.061 53.5933 26.1147H53.7593C53.7593 26.2061 53.751 26.2974 53.751 26.3887C53.6597 28.6797 52.8545 30.5391 50.9536 30.5391C49.8994 30.5391 49.1606 29.9912 48.8452 29.1528L48.8203 29.0698H46.7119L46.7285 29.1611C47.1104 30.9956 48.7539 32.2988 50.9536 32.2988C53.9668 32.2988 55.7847 29.9082 55.7847 25.874V25.8574C55.7847 21.541 53.5601 19.7231 51.0034 19.7231ZM50.9951 26.2559C49.6338 26.2559 48.646 25.2598 48.646 23.8735V23.8569C48.646 22.5205 49.7002 21.4663 51.02 21.4663C52.3481 21.4663 53.3857 22.5371 53.3857 23.9067V23.9233C53.3857 25.2764 52.3481 26.2559 50.9951 26.2559ZM58.8732 24.2388C59.6369 24.2388 60.193 23.6577 60.193 22.9272C60.193 22.1885 59.6369 21.6157 58.8732 21.6157C58.1179 21.6157 57.5534 22.1885 57.5534 22.9272C57.5534 23.6577 58.1179 24.2388 58.8732 24.2388ZM58.8732 30.3979C59.6369 30.3979 60.193 29.8252 60.193 29.0864C60.193 28.3477 59.6369 27.7749 58.8732 27.7749C58.1179 27.7749 57.5534 28.3477 57.5534 29.0864C57.5534 29.8252 58.1179 30.3979 58.8732 30.3979ZM67.7723 32H69.8226V29.7007H71.433V27.9326H69.8226V20.022H66.7928C65.1659 22.4956 63.4642 25.2515 61.912 27.9492V29.7007H67.7723V32ZM63.9042 27.9824V27.8579C65.0663 25.8242 66.4525 23.6079 67.681 21.7319H67.8055V27.9824H63.9042ZM75.7168 32H77.8584V20.022H75.7251L72.5957 22.2217V24.2388L75.5757 22.1304H75.7168V32Z" fill="#333333"/>
        <rect x="306.35" y="19" width="3.2" height="12" rx="1" fill="#333333"/>
        <rect x="301.05" y="21.3999" width="3.2" height="9.6" rx="1" fill="#333333"/>
        <rect x="295.75" y="24" width="3.2" height="7" rx="1" fill="#333333"/>
        <rect x="290.45" y="26.3999" width="3.2" height="4.6" rx="1" fill="#333333"/>
        <path d="M324.009 27.1335C324.712 27.1335 325.396 27.3184 325.998 27.6709L326.242 27.8137C326.427 27.9219 326.459 28.1753 326.308 28.3266L324.224 30.4043C324.096 30.5319 323.889 30.5319 323.761 30.4043L321.691 28.3399C321.54 28.1893 321.571 27.9372 321.755 27.8282L321.996 27.6847C322.604 27.3233 323.296 27.1335 324.009 27.1335Z" fill="#333333"/>
        <path d="M324.009 23.3169C325.759 23.3169 327.439 23.8974 328.807 24.9725L329.001 25.1244C329.155 25.2455 329.169 25.4738 329.03 25.6122L327.786 26.8526C327.671 26.9673 327.489 26.9805 327.358 26.8835L327.207 26.7709C326.282 26.0838 325.168 25.7153 324.009 25.7153C322.842 25.7153 321.721 26.0884 320.794 26.7833L320.642 26.897C320.512 26.9948 320.329 26.9819 320.213 26.8669L318.97 25.6269C318.831 25.4888 318.845 25.2611 318.998 25.1398L319.19 24.9877C320.562 23.9031 322.25 23.3169 324.009 23.3169Z" fill="#333333"/>
        <path d="M324.009 19.5C326.786 19.5 329.442 20.4796 331.544 22.2752L331.723 22.4285C331.868 22.5524 331.877 22.7731 331.742 22.9078L330.502 24.1441C330.382 24.2639 330.19 24.2723 330.06 24.1635L329.906 24.0351C328.251 22.6512 326.177 21.8984 324.009 21.8984C321.833 21.8984 319.752 22.6564 318.095 24.049L317.941 24.178C317.811 24.2873 317.619 24.2791 317.498 24.1591L316.259 22.9229C316.124 22.7885 316.132 22.5681 316.277 22.4441L316.455 22.2908C318.56 20.4855 321.223 19.5 324.009 19.5Z" fill="#333333"/>
        <rect x="340" y="20.5" width="21" height="9" rx="1.33" fill="#333333"/>
        <path opacity="0.4" fill-rule="evenodd" clip-rule="evenodd" d="M343.6 19.5H357.4C358.397 19.5 359.084 19.5008 359.617 19.5444C360.139 19.587 360.425 19.6655 360.635 19.7725C361.105 20.0122 361.488 20.3946 361.728 20.865C361.834 21.0749 361.913 21.3608 361.956 21.8826C361.999 22.4161 362 23.1034 362 24.1V25.9C362 26.8966 361.999 27.5839 361.956 28.1174C361.913 28.6392 361.834 28.9251 361.728 29.135C361.488 29.6054 361.105 29.9878 360.635 30.2275C360.425 30.3345 360.139 30.413 359.617 30.4556C359.084 30.4992 358.397 30.5 357.4 30.5H343.6C342.603 30.5 341.916 30.4992 341.383 30.4556C340.861 30.413 340.575 30.3345 340.365 30.2275C339.895 29.9878 339.512 29.6054 339.272 29.135C339.166 28.9251 339.087 28.6392 339.044 28.1174C339.001 27.5839 339 26.8966 339 25.9V24.1C339 23.1034 339.001 22.4161 339.044 21.8826C339.087 21.3608 339.166 21.0749 339.272 20.865C339.512 20.3946 339.895 20.0122 340.365 19.7725C340.575 19.6655 340.861 19.587 341.383 19.5444C341.916 19.5008 342.603 19.5 343.6 19.5ZM338 24.1C338 22.1398 338 21.1597 338.381 20.411C338.717 19.7525 339.252 19.217 339.911 18.8815C340.66 18.5 341.64 18.5 343.6 18.5H357.4C359.36 18.5 360.34 18.5 361.089 18.8815C361.748 19.217 362.283 19.7525 362.619 20.411C363 21.1597 363 22.1398 363 24.1V25.9C363 27.8602 363 28.8403 362.619 29.589C362.283 30.2475 361.748 30.783 361.089 31.1185C360.34 31.5 359.36 31.5 357.4 31.5H343.6C341.64 31.5 340.66 31.5 339.911 31.1185C339.252 30.783 338.717 30.2475 338.381 29.589C338 28.8403 338 27.8602 338 25.9V24.1ZM364 27C364.828 26.8 365.5 26.1046 365.5 25C365.5 23.8954 364.828 23.2 364 23L364 25L364 27Z" fill="#333333"/>
        <path d="M31 88H17" stroke="#333333" stroke-width="2" stroke-linecap="round" stroke-linejoin="round"/>
        <path d="M24 95L17 88L24 81" stroke="#333333" stroke-width="2" stroke-linecap="round" stroke-linejoin="round"/>
        <path d="M164.891 78.9375V81.2812H156.957V96H154.027V78.9375H164.891ZM156.066 85.4883H160.355C161.652 85.4883 162.762 85.707 163.684 86.1445C164.605 86.5742 165.309 87.1797 165.793 87.9609C166.277 88.7422 166.52 89.6523 166.52 90.6914C166.52 91.4727 166.383 92.1875 166.109 92.8359C165.836 93.4844 165.434 94.0469 164.902 94.5234C164.371 94.9922 163.723 95.3555 162.957 95.6133C162.199 95.8711 161.332 96 160.355 96H154.027V78.9375H156.98V93.668H160.355C161.098 93.668 161.707 93.5312 162.184 93.2578C162.66 92.9766 163.012 92.6094 163.238 92.1562C163.473 91.7031 163.59 91.207 163.59 90.668C163.59 90.1445 163.473 89.668 163.238 89.2383C163.012 88.8086 162.66 88.4648 162.184 88.207C161.707 87.9492 161.098 87.8203 160.355 87.8203H156.066V85.4883ZM171.617 91.875L176.598 83.3203H179.422V96H176.598V87.4336L171.617 96H168.793V83.3203H171.617V91.875ZM190.93 83.3203V85.5703H184.742V83.3203H190.93ZM193.145 83.3203V96H190.32V83.3203H193.145ZM184.051 83.3203H186.84L186.5 89.5898C186.453 90.5195 186.359 91.3398 186.219 92.0508C186.086 92.7539 185.906 93.3594 185.68 93.8672C185.453 94.3672 185.176 94.7734 184.848 95.0859C184.52 95.3984 184.137 95.6289 183.699 95.7773C183.262 95.9258 182.77 96 182.223 96H181.344L181.332 93.6797L181.777 93.6445C182.066 93.6211 182.316 93.5469 182.527 93.4219C182.738 93.2891 182.918 93.1016 183.066 92.8594C183.223 92.6172 183.348 92.3047 183.441 91.9219C183.543 91.5391 183.621 91.0859 183.676 90.5625C183.738 90.0391 183.785 89.4297 183.816 88.7344L184.051 83.3203ZM201.734 96.2344C200.797 96.2344 199.949 96.082 199.191 95.7773C198.441 95.4648 197.801 95.0312 197.27 94.4766C196.746 93.9219 196.344 93.2695 196.062 92.5195C195.781 91.7695 195.641 90.9609 195.641 90.0938V89.625C195.641 88.6328 195.785 87.7344 196.074 86.9297C196.363 86.125 196.766 85.4375 197.281 84.8672C197.797 84.2891 198.406 83.8477 199.109 83.543C199.812 83.2383 200.574 83.0859 201.395 83.0859C202.301 83.0859 203.094 83.2383 203.773 83.543C204.453 83.8477 205.016 84.2773 205.461 84.832C205.914 85.3789 206.25 86.0312 206.469 86.7891C206.695 87.5469 206.809 88.3828 206.809 89.2969V90.5039H197.012V88.4766H204.02V88.2539C204.004 87.7461 203.902 87.2695 203.715 86.8242C203.535 86.3789 203.258 86.0195 202.883 85.7461C202.508 85.4727 202.008 85.3359 201.383 85.3359C200.914 85.3359 200.496 85.4375 200.129 85.6406C199.77 85.8359 199.469 86.1211 199.227 86.4961C198.984 86.8711 198.797 87.3242 198.664 87.8555C198.539 88.3789 198.477 88.9688 198.477 89.625V90.0938C198.477 90.6484 198.551 91.1641 198.699 91.6406C198.855 92.1094 199.082 92.5195 199.379 92.8711C199.676 93.2227 200.035 93.5 200.457 93.7031C200.879 93.8984 201.359 93.9961 201.898 93.9961C202.578 93.9961 203.184 93.8594 203.715 93.5859C204.246 93.3125 204.707 92.9258 205.098 92.4258L206.586 93.8672C206.312 94.2656 205.957 94.6484 205.52 95.0156C205.082 95.375 204.547 95.668 203.914 95.8945C203.289 96.1211 202.562 96.2344 201.734 96.2344ZM214.754 83.3203V96H211.918V83.3203H214.754ZM218.914 83.3203V85.5469H207.828V83.3203H218.914ZM222.898 87.3516H226.637C227.73 87.3516 228.66 87.5352 229.426 87.9023C230.191 88.2695 230.773 88.7812 231.172 89.4375C231.578 90.0859 231.781 90.8281 231.781 91.6641C231.781 92.2812 231.668 92.8555 231.441 93.3867C231.215 93.9102 230.879 94.3672 230.434 94.7578C229.996 95.1484 229.457 95.4531 228.816 95.6719C228.184 95.8906 227.457 96 226.637 96H221.023V83.3203H223.859V93.7617H226.637C227.199 93.7617 227.648 93.6641 227.984 93.4688C228.32 93.2734 228.562 93.0195 228.711 92.707C228.867 92.3945 228.945 92.0625 228.945 91.7109C228.945 91.3516 228.867 91.0117 228.711 90.6914C228.562 90.3711 228.32 90.1094 227.984 89.9062C227.648 89.7031 227.199 89.6016 226.637 89.6016H222.898V87.3516ZM236.773 83.3203V96H233.949V83.3203H236.773Z" fill="#333333"/>
        <path d="M362 89C362.552 89 363 88.5523 363 88C363 87.4477 362.552 87 362 87C361.448 87 361 87.4477 361 88C361 88.5523 361.448 89 362 89Z" stroke="#333333" stroke-width="2" stroke-linecap="round" stroke-linejoin="round"/>
        <path d="M362 82C362.552 82 363 81.5523 363 81C363 80.4477 362.552 80 362 80C361.448 80 361 80.4477 361 81C361 81.5523 361.448 82 362 82Z" stroke="#333333" stroke-width="2" stroke-linecap="round" stroke-linejoin="round"/>
        <path d="M362 96C362.552 96 363 95.5523 363 95C363 94.4477 362.552 94 362 94C361.448 94 361 94.4477 361 95C361 95.5523 361.448 96 362 96Z" stroke="#333333" stroke-width="2" stroke-linecap="round" stroke-linejoin="round"/>
        <g filter="url(#filter0_ddd_309_2167)">
            <rect y="115" width="390" height="125" fill="white"/>
        </g>
        <path d="M29.8516 140.781V155H26.9219V143.076H21.209V155H18.2793V140.781H29.8516ZM32.2852 149.824V149.619C32.2852 148.844 32.3958 148.132 32.6172 147.48C32.8385 146.823 33.1608 146.253 33.584 145.771C34.0072 145.29 34.528 144.915 35.1465 144.648C35.765 144.375 36.4746 144.238 37.2754 144.238C38.0762 144.238 38.7891 144.375 39.4141 144.648C40.0391 144.915 40.5632 145.29 40.9863 145.771C41.416 146.253 41.7415 146.823 41.9629 147.48C42.1842 148.132 42.2949 148.844 42.2949 149.619V149.824C42.2949 150.592 42.1842 151.305 41.9629 151.963C41.7415 152.614 41.416 153.184 40.9863 153.672C40.5632 154.154 40.0423 154.528 39.4238 154.795C38.8053 155.062 38.0957 155.195 37.2949 155.195C36.4941 155.195 35.7812 155.062 35.1562 154.795C34.5378 154.528 34.0137 154.154 33.584 153.672C33.1608 153.184 32.8385 152.614 32.6172 151.963C32.3958 151.305 32.2852 150.592 32.2852 149.824ZM35.0977 149.619V149.824C35.0977 150.267 35.1367 150.68 35.2148 151.064C35.293 151.449 35.4167 151.787 35.5859 152.08C35.7617 152.367 35.9896 152.591 36.2695 152.754C36.5495 152.917 36.8913 152.998 37.2949 152.998C37.6855 152.998 38.0208 152.917 38.3008 152.754C38.5807 152.591 38.8053 152.367 38.9746 152.08C39.1439 151.787 39.2676 151.449 39.3457 151.064C39.4303 150.68 39.4727 150.267 39.4727 149.824V149.619C39.4727 149.189 39.4303 148.786 39.3457 148.408C39.2676 148.024 39.1406 147.686 38.9648 147.393C38.7956 147.093 38.571 146.859 38.291 146.689C38.0111 146.52 37.6725 146.436 37.2754 146.436C36.8783 146.436 36.5397 146.52 36.2598 146.689C35.9863 146.859 35.7617 147.093 35.5859 147.393C35.4167 147.686 35.293 148.024 35.2148 148.408C35.1367 148.786 35.0977 149.189 35.0977 149.619ZM48.8887 152.998C49.2337 152.998 49.5397 152.933 49.8066 152.803C50.0736 152.666 50.2819 152.477 50.4316 152.236C50.5879 151.989 50.6693 151.699 50.6758 151.367H53.3223C53.3158 152.109 53.1172 152.77 52.7266 153.35C52.3359 153.923 51.8118 154.375 51.1543 154.707C50.4967 155.033 49.7611 155.195 48.9473 155.195C48.127 155.195 47.4108 155.059 46.7988 154.785C46.1934 154.512 45.6888 154.134 45.2852 153.652C44.8815 153.164 44.5788 152.598 44.377 151.953C44.1751 151.302 44.0742 150.605 44.0742 149.863V149.58C44.0742 148.831 44.1751 148.135 44.377 147.49C44.5788 146.839 44.8815 146.273 45.2852 145.791C45.6888 145.303 46.1934 144.922 46.7988 144.648C47.4043 144.375 48.1139 144.238 48.9277 144.238C49.7936 144.238 50.5521 144.404 51.2031 144.736C51.8607 145.068 52.375 145.544 52.7461 146.162C53.1237 146.774 53.3158 147.5 53.3223 148.34H50.6758C50.6693 147.988 50.5944 147.669 50.4512 147.383C50.3145 147.096 50.1126 146.868 49.8457 146.699C49.5853 146.523 49.263 146.436 48.8789 146.436C48.4688 146.436 48.1335 146.523 47.873 146.699C47.6126 146.868 47.4108 147.103 47.2676 147.402C47.1243 147.695 47.0234 148.031 46.9648 148.408C46.9128 148.779 46.8867 149.17 46.8867 149.58V149.863C46.8867 150.273 46.9128 150.667 46.9648 151.045C47.0169 151.423 47.1146 151.758 47.2578 152.051C47.4076 152.344 47.6126 152.575 47.873 152.744C48.1335 152.913 48.472 152.998 48.8887 152.998ZM60.3164 155.195C59.4961 155.195 58.7604 155.065 58.1094 154.805C57.4583 154.538 56.9049 154.17 56.4492 153.701C56 153.232 55.6549 152.689 55.4141 152.07C55.1732 151.445 55.0527 150.781 55.0527 150.078V149.688C55.0527 148.887 55.1667 148.154 55.3945 147.49C55.6224 146.826 55.9479 146.25 56.3711 145.762C56.8008 145.273 57.3216 144.899 57.9336 144.639C58.5456 144.372 59.2357 144.238 60.0039 144.238C60.7526 144.238 61.4167 144.362 61.9961 144.609C62.5755 144.857 63.0605 145.208 63.4512 145.664C63.8483 146.12 64.1478 146.667 64.3496 147.305C64.5514 147.936 64.6523 148.639 64.6523 149.414V150.586H56.2539V148.711H61.8887V148.496C61.8887 148.105 61.8171 147.757 61.6738 147.451C61.5371 147.139 61.3288 146.891 61.0488 146.709C60.7689 146.527 60.4108 146.436 59.9746 146.436C59.6035 146.436 59.2845 146.517 59.0176 146.68C58.7507 146.842 58.5326 147.07 58.3633 147.363C58.2005 147.656 58.0768 148.001 57.9922 148.398C57.9141 148.789 57.875 149.219 57.875 149.688V150.078C57.875 150.501 57.9336 150.892 58.0508 151.25C58.1745 151.608 58.347 151.917 58.5684 152.178C58.7962 152.438 59.0697 152.64 59.3887 152.783C59.7142 152.926 60.082 152.998 60.4922 152.998C61 152.998 61.472 152.9 61.9082 152.705C62.3509 152.503 62.7318 152.201 63.0508 151.797L64.418 153.281C64.1966 153.6 63.8939 153.906 63.5098 154.199C63.1322 154.492 62.6764 154.733 62.1426 154.922C61.6087 155.104 61 155.195 60.3164 155.195ZM83.1309 152.812L82.9355 158.135H80.3184V155H79.1367V152.812H83.1309ZM66.7148 144.434H69.5273V152.803H72.457V144.434H75.2793V152.803H78.1992V144.434H81.0117V155H66.7148V144.434ZM90.0859 155.195C89.2656 155.195 88.5299 155.065 87.8789 154.805C87.2279 154.538 86.6745 154.17 86.2188 153.701C85.7695 153.232 85.4245 152.689 85.1836 152.07C84.9427 151.445 84.8223 150.781 84.8223 150.078V149.688C84.8223 148.887 84.9362 148.154 85.1641 147.49C85.3919 146.826 85.7174 146.25 86.1406 145.762C86.5703 145.273 87.0911 144.899 87.7031 144.639C88.3151 144.372 89.0052 144.238 89.7734 144.238C90.5221 144.238 91.1862 144.362 91.7656 144.609C92.3451 144.857 92.8301 145.208 93.2207 145.664C93.6178 146.12 93.9173 146.667 94.1191 147.305C94.321 147.936 94.4219 148.639 94.4219 149.414V150.586H86.0234V148.711H91.6582V148.496C91.6582 148.105 91.5866 147.757 91.4434 147.451C91.3066 147.139 91.0983 146.891 90.8184 146.709C90.5384 146.527 90.1803 146.436 89.7441 146.436C89.373 146.436 89.054 146.517 88.7871 146.68C88.5202 146.842 88.3021 147.07 88.1328 147.363C87.9701 147.656 87.8464 148.001 87.7617 148.398C87.6836 148.789 87.6445 149.219 87.6445 149.688V150.078C87.6445 150.501 87.7031 150.892 87.8203 151.25C87.944 151.608 88.1165 151.917 88.3379 152.178C88.5658 152.438 88.8392 152.64 89.1582 152.783C89.4837 152.926 89.8516 152.998 90.2617 152.998C90.7695 152.998 91.2415 152.9 91.6777 152.705C92.1204 152.503 92.5013 152.201 92.8203 151.797L94.1875 153.281C93.9661 153.6 93.6634 153.906 93.2793 154.199C92.9017 154.492 92.446 154.733 91.9121 154.922C91.3783 155.104 90.7695 155.195 90.0859 155.195ZM103.76 148.701V150.889H98.3887V148.701H103.76ZM99.3262 144.434V155H96.5137V144.434H99.3262ZM105.664 144.434V155H102.842V144.434H105.664ZM111.154 151.074L114.699 144.434H117.512V155H114.699V148.35L111.154 155H108.342V144.434H111.154V151.074ZM125.043 155.195C124.223 155.195 123.487 155.065 122.836 154.805C122.185 154.538 121.632 154.17 121.176 153.701C120.727 153.232 120.382 152.689 120.141 152.07C119.9 151.445 119.779 150.781 119.779 150.078V149.688C119.779 148.887 119.893 148.154 120.121 147.49C120.349 146.826 120.674 146.25 121.098 145.762C121.527 145.273 122.048 144.899 122.66 144.639C123.272 144.372 123.962 144.238 124.73 144.238C125.479 144.238 126.143 144.362 126.723 144.609C127.302 144.857 127.787 145.208 128.178 145.664C128.575 146.12 128.874 146.667 129.076 147.305C129.278 147.936 129.379 148.639 129.379 149.414V150.586H120.98V148.711H126.615V148.496C126.615 148.105 126.544 147.757 126.4 147.451C126.264 147.139 126.055 146.891 125.775 146.709C125.495 146.527 125.137 146.436 124.701 146.436C124.33 146.436 124.011 146.517 123.744 146.68C123.477 146.842 123.259 147.07 123.09 147.363C122.927 147.656 122.803 148.001 122.719 148.398C122.641 148.789 122.602 149.219 122.602 149.688V150.078C122.602 150.501 122.66 150.892 122.777 151.25C122.901 151.608 123.074 151.917 123.295 152.178C123.523 152.438 123.796 152.64 124.115 152.783C124.441 152.926 124.809 152.998 125.219 152.998C125.727 152.998 126.199 152.9 126.635 152.705C127.077 152.503 127.458 152.201 127.777 151.797L129.145 153.281C128.923 153.6 128.62 153.906 128.236 154.199C127.859 154.492 127.403 154.733 126.869 154.922C126.335 155.104 125.727 155.195 125.043 155.195ZM148.406 147.568V153.203C148.185 153.47 147.843 153.76 147.381 154.072C146.919 154.378 146.323 154.642 145.594 154.863C144.865 155.085 143.982 155.195 142.947 155.195C142.029 155.195 141.193 155.046 140.438 154.746C139.682 154.44 139.031 153.994 138.484 153.408C137.944 152.822 137.527 152.106 137.234 151.26C136.941 150.407 136.795 149.434 136.795 148.34V147.451C136.795 146.357 136.935 145.384 137.215 144.531C137.501 143.678 137.908 142.959 138.436 142.373C138.963 141.787 139.591 141.341 140.32 141.035C141.049 140.729 141.86 140.576 142.752 140.576C143.989 140.576 145.005 140.778 145.799 141.182C146.593 141.579 147.199 142.132 147.615 142.842C148.038 143.545 148.299 144.352 148.396 145.264H145.555C145.483 144.782 145.346 144.362 145.145 144.004C144.943 143.646 144.653 143.366 144.275 143.164C143.904 142.962 143.423 142.861 142.83 142.861C142.342 142.861 141.906 142.962 141.521 143.164C141.144 143.359 140.825 143.649 140.564 144.033C140.304 144.417 140.105 144.893 139.969 145.459C139.832 146.025 139.764 146.683 139.764 147.432V148.34C139.764 149.082 139.835 149.74 139.979 150.312C140.122 150.879 140.333 151.357 140.613 151.748C140.9 152.132 141.251 152.422 141.668 152.617C142.085 152.812 142.57 152.91 143.123 152.91C143.585 152.91 143.969 152.871 144.275 152.793C144.588 152.715 144.839 152.62 145.027 152.51C145.223 152.393 145.372 152.282 145.477 152.178V149.658H142.801V147.568H148.406ZM156.797 152.617V147.91C156.797 147.572 156.742 147.282 156.631 147.041C156.52 146.794 156.348 146.602 156.113 146.465C155.885 146.328 155.589 146.26 155.225 146.26C154.912 146.26 154.642 146.315 154.414 146.426C154.186 146.53 154.01 146.683 153.887 146.885C153.763 147.08 153.701 147.311 153.701 147.578H150.889C150.889 147.129 150.993 146.702 151.201 146.299C151.41 145.895 151.712 145.54 152.109 145.234C152.507 144.922 152.979 144.678 153.525 144.502C154.079 144.326 154.697 144.238 155.381 144.238C156.201 144.238 156.93 144.375 157.568 144.648C158.206 144.922 158.708 145.332 159.072 145.879C159.443 146.426 159.629 147.109 159.629 147.93V152.451C159.629 153.031 159.665 153.506 159.736 153.877C159.808 154.242 159.912 154.561 160.049 154.834V155H157.207C157.07 154.714 156.966 154.355 156.895 153.926C156.829 153.49 156.797 153.053 156.797 152.617ZM157.168 148.564L157.188 150.156H155.615C155.244 150.156 154.922 150.199 154.648 150.283C154.375 150.368 154.15 150.488 153.975 150.645C153.799 150.794 153.669 150.97 153.584 151.172C153.506 151.374 153.467 151.595 153.467 151.836C153.467 152.077 153.522 152.295 153.633 152.49C153.743 152.679 153.903 152.829 154.111 152.939C154.32 153.044 154.564 153.096 154.844 153.096C155.267 153.096 155.635 153.011 155.947 152.842C156.26 152.673 156.501 152.464 156.67 152.217C156.846 151.969 156.937 151.735 156.943 151.514L157.686 152.705C157.581 152.972 157.438 153.249 157.256 153.535C157.08 153.822 156.855 154.092 156.582 154.346C156.309 154.593 155.98 154.798 155.596 154.961C155.212 155.117 154.756 155.195 154.229 155.195C153.558 155.195 152.949 155.062 152.402 154.795C151.862 154.521 151.432 154.147 151.113 153.672C150.801 153.19 150.645 152.643 150.645 152.031C150.645 151.478 150.749 150.986 150.957 150.557C151.165 150.127 151.471 149.766 151.875 149.473C152.285 149.173 152.796 148.949 153.408 148.799C154.02 148.643 154.73 148.564 155.537 148.564H157.168ZM165.109 146.738V155H162.297V144.434H164.943L165.109 146.738ZM168.293 144.365L168.244 146.973C168.107 146.953 167.941 146.937 167.746 146.924C167.557 146.904 167.385 146.895 167.229 146.895C166.831 146.895 166.486 146.947 166.193 147.051C165.907 147.148 165.666 147.295 165.471 147.49C165.282 147.686 165.139 147.923 165.041 148.203C164.95 148.483 164.898 148.802 164.885 149.16L164.318 148.984C164.318 148.301 164.387 147.673 164.523 147.1C164.66 146.52 164.859 146.016 165.119 145.586C165.386 145.156 165.712 144.824 166.096 144.59C166.48 144.355 166.919 144.238 167.414 144.238C167.57 144.238 167.73 144.251 167.893 144.277C168.055 144.297 168.189 144.326 168.293 144.365ZM176.166 152.695V140H178.998V155H176.449L176.166 152.695ZM169.486 149.844V149.639C169.486 148.831 169.577 148.099 169.76 147.441C169.942 146.777 170.209 146.208 170.561 145.732C170.912 145.257 171.345 144.889 171.859 144.629C172.374 144.368 172.96 144.238 173.617 144.238C174.236 144.238 174.776 144.368 175.238 144.629C175.707 144.889 176.104 145.26 176.43 145.742C176.762 146.217 177.029 146.781 177.23 147.432C177.432 148.076 177.579 148.783 177.67 149.551V150C177.579 150.736 177.432 151.419 177.23 152.051C177.029 152.682 176.762 153.236 176.43 153.711C176.104 154.18 175.707 154.544 175.238 154.805C174.77 155.065 174.223 155.195 173.598 155.195C172.94 155.195 172.354 155.062 171.84 154.795C171.332 154.528 170.902 154.154 170.551 153.672C170.206 153.19 169.942 152.624 169.76 151.973C169.577 151.322 169.486 150.612 169.486 149.844ZM172.299 149.639V149.844C172.299 150.28 172.331 150.687 172.396 151.064C172.468 151.442 172.582 151.777 172.738 152.07C172.901 152.357 173.109 152.581 173.363 152.744C173.624 152.9 173.939 152.979 174.311 152.979C174.792 152.979 175.189 152.871 175.502 152.656C175.814 152.435 176.052 152.132 176.215 151.748C176.384 151.364 176.482 150.921 176.508 150.42V149.141C176.488 148.73 176.43 148.363 176.332 148.037C176.241 147.705 176.104 147.422 175.922 147.188C175.746 146.953 175.525 146.771 175.258 146.641C174.997 146.51 174.688 146.445 174.33 146.445C173.965 146.445 173.653 146.53 173.393 146.699C173.132 146.862 172.921 147.087 172.758 147.373C172.602 147.66 172.484 147.998 172.406 148.389C172.335 148.773 172.299 149.189 172.299 149.639ZM184.664 144.434V155H181.842V144.434H184.664ZM181.666 141.68C181.666 141.27 181.809 140.931 182.096 140.664C182.382 140.397 182.766 140.264 183.248 140.264C183.723 140.264 184.104 140.397 184.391 140.664C184.684 140.931 184.83 141.27 184.83 141.68C184.83 142.09 184.684 142.428 184.391 142.695C184.104 142.962 183.723 143.096 183.248 143.096C182.766 143.096 182.382 142.962 182.096 142.695C181.809 142.428 181.666 142.09 181.666 141.68ZM190.242 146.689V155H187.43V144.434H190.066L190.242 146.689ZM189.832 149.346H189.07C189.07 148.564 189.171 147.861 189.373 147.236C189.575 146.605 189.858 146.068 190.223 145.625C190.587 145.176 191.02 144.834 191.521 144.6C192.029 144.359 192.596 144.238 193.221 144.238C193.715 144.238 194.168 144.31 194.578 144.453C194.988 144.596 195.34 144.824 195.633 145.137C195.932 145.449 196.16 145.863 196.316 146.377C196.479 146.891 196.561 147.52 196.561 148.262V155H193.729V148.252C193.729 147.783 193.663 147.419 193.533 147.158C193.403 146.898 193.211 146.715 192.957 146.611C192.71 146.501 192.404 146.445 192.039 146.445C191.661 146.445 191.333 146.52 191.053 146.67C190.779 146.82 190.551 147.028 190.369 147.295C190.193 147.555 190.06 147.861 189.969 148.213C189.878 148.564 189.832 148.942 189.832 149.346ZM204.062 155.195C203.242 155.195 202.507 155.065 201.855 154.805C201.204 154.538 200.651 154.17 200.195 153.701C199.746 153.232 199.401 152.689 199.16 152.07C198.919 151.445 198.799 150.781 198.799 150.078V149.688C198.799 148.887 198.913 148.154 199.141 147.49C199.368 146.826 199.694 146.25 200.117 145.762C200.547 145.273 201.068 144.899 201.68 144.639C202.292 144.372 202.982 144.238 203.75 144.238C204.499 144.238 205.163 144.362 205.742 144.609C206.322 144.857 206.807 145.208 207.197 145.664C207.594 146.12 207.894 146.667 208.096 147.305C208.298 147.936 208.398 148.639 208.398 149.414V150.586H200V148.711H205.635V148.496C205.635 148.105 205.563 147.757 205.42 147.451C205.283 147.139 205.075 146.891 204.795 146.709C204.515 146.527 204.157 146.436 203.721 146.436C203.35 146.436 203.031 146.517 202.764 146.68C202.497 146.842 202.279 147.07 202.109 147.363C201.947 147.656 201.823 148.001 201.738 148.398C201.66 148.789 201.621 149.219 201.621 149.688V150.078C201.621 150.501 201.68 150.892 201.797 151.25C201.921 151.608 202.093 151.917 202.314 152.178C202.542 152.438 202.816 152.64 203.135 152.783C203.46 152.926 203.828 152.998 204.238 152.998C204.746 152.998 205.218 152.9 205.654 152.705C206.097 152.503 206.478 152.201 206.797 151.797L208.164 153.281C207.943 153.6 207.64 153.906 207.256 154.199C206.878 154.492 206.423 154.733 205.889 154.922C205.355 155.104 204.746 155.195 204.062 155.195ZM213.312 146.738V155H210.5V144.434H213.146L213.312 146.738ZM216.496 144.365L216.447 146.973C216.311 146.953 216.145 146.937 215.949 146.924C215.76 146.904 215.588 146.895 215.432 146.895C215.035 146.895 214.689 146.947 214.396 147.051C214.11 147.148 213.869 147.295 213.674 147.49C213.485 147.686 213.342 147.923 213.244 148.203C213.153 148.483 213.101 148.802 213.088 149.16L212.521 148.984C212.521 148.301 212.59 147.673 212.727 147.1C212.863 146.52 213.062 146.016 213.322 145.586C213.589 145.156 213.915 144.824 214.299 144.59C214.683 144.355 215.122 144.238 215.617 144.238C215.773 144.238 215.933 144.251 216.096 144.277C216.258 144.297 216.392 144.326 216.496 144.365ZM225.318 140.781H227.799L231.451 151.221L235.104 140.781H237.584L232.447 155H230.455L225.318 140.781ZM223.98 140.781H226.451L226.9 150.957V155H223.98V140.781ZM236.451 140.781H238.932V155H236.002V150.957L236.451 140.781ZM248.074 152.471V144.434H250.887V155H248.24L248.074 152.471ZM248.387 150.303L249.217 150.283C249.217 150.986 249.135 151.641 248.973 152.246C248.81 152.845 248.566 153.366 248.24 153.809C247.915 154.245 247.505 154.587 247.01 154.834C246.515 155.075 245.932 155.195 245.262 155.195C244.747 155.195 244.272 155.124 243.836 154.98C243.406 154.831 243.035 154.6 242.723 154.287C242.417 153.968 242.176 153.561 242 153.066C241.831 152.565 241.746 151.963 241.746 151.26V144.434H244.559V151.279C244.559 151.592 244.594 151.855 244.666 152.07C244.744 152.285 244.852 152.461 244.988 152.598C245.125 152.734 245.285 152.832 245.467 152.891C245.656 152.949 245.864 152.979 246.092 152.979C246.671 152.979 247.127 152.861 247.459 152.627C247.798 152.393 248.035 152.074 248.172 151.67C248.315 151.26 248.387 150.804 248.387 150.303ZM259.248 152.08C259.248 151.878 259.189 151.696 259.072 151.533C258.955 151.37 258.737 151.221 258.418 151.084C258.105 150.941 257.653 150.811 257.061 150.693C256.527 150.576 256.029 150.43 255.566 150.254C255.111 150.072 254.714 149.854 254.375 149.6C254.043 149.346 253.783 149.046 253.594 148.701C253.405 148.35 253.311 147.949 253.311 147.5C253.311 147.057 253.405 146.641 253.594 146.25C253.789 145.859 254.066 145.514 254.424 145.215C254.788 144.909 255.231 144.671 255.752 144.502C256.279 144.326 256.872 144.238 257.529 144.238C258.447 144.238 259.235 144.385 259.893 144.678C260.557 144.971 261.064 145.374 261.416 145.889C261.774 146.396 261.953 146.976 261.953 147.627H259.141C259.141 147.354 259.082 147.109 258.965 146.895C258.854 146.673 258.678 146.501 258.438 146.377C258.203 146.247 257.897 146.182 257.52 146.182C257.207 146.182 256.937 146.237 256.709 146.348C256.481 146.452 256.305 146.595 256.182 146.777C256.064 146.953 256.006 147.148 256.006 147.363C256.006 147.526 256.038 147.673 256.104 147.803C256.175 147.926 256.289 148.04 256.445 148.145C256.602 148.249 256.803 148.346 257.051 148.438C257.305 148.522 257.617 148.6 257.988 148.672C258.75 148.828 259.43 149.033 260.029 149.287C260.628 149.535 261.104 149.873 261.455 150.303C261.807 150.726 261.982 151.283 261.982 151.973C261.982 152.441 261.878 152.871 261.67 153.262C261.462 153.652 261.162 153.994 260.771 154.287C260.381 154.574 259.912 154.798 259.365 154.961C258.825 155.117 258.216 155.195 257.539 155.195C256.556 155.195 255.723 155.02 255.039 154.668C254.362 154.316 253.848 153.87 253.496 153.33C253.151 152.783 252.979 152.223 252.979 151.65H255.645C255.658 152.035 255.755 152.344 255.938 152.578C256.126 152.812 256.364 152.982 256.65 153.086C256.943 153.19 257.259 153.242 257.598 153.242C257.962 153.242 258.265 153.193 258.506 153.096C258.747 152.992 258.929 152.855 259.053 152.686C259.183 152.51 259.248 152.308 259.248 152.08ZM269.172 155.195C268.352 155.195 267.616 155.065 266.965 154.805C266.314 154.538 265.76 154.17 265.305 153.701C264.855 153.232 264.51 152.689 264.27 152.07C264.029 151.445 263.908 150.781 263.908 150.078V149.688C263.908 148.887 264.022 148.154 264.25 147.49C264.478 146.826 264.803 146.25 265.227 145.762C265.656 145.273 266.177 144.899 266.789 144.639C267.401 144.372 268.091 144.238 268.859 144.238C269.608 144.238 270.272 144.362 270.852 144.609C271.431 144.857 271.916 145.208 272.307 145.664C272.704 146.12 273.003 146.667 273.205 147.305C273.407 147.936 273.508 148.639 273.508 149.414V150.586H265.109V148.711H270.744V148.496C270.744 148.105 270.673 147.757 270.529 147.451C270.393 147.139 270.184 146.891 269.904 146.709C269.624 146.527 269.266 146.436 268.83 146.436C268.459 146.436 268.14 146.517 267.873 146.68C267.606 146.842 267.388 147.07 267.219 147.363C267.056 147.656 266.932 148.001 266.848 148.398C266.77 148.789 266.73 149.219 266.73 149.688V150.078C266.73 150.501 266.789 150.892 266.906 151.25C267.03 151.608 267.202 151.917 267.424 152.178C267.652 152.438 267.925 152.64 268.244 152.783C268.57 152.926 268.938 152.998 269.348 152.998C269.855 152.998 270.327 152.9 270.764 152.705C271.206 152.503 271.587 152.201 271.906 151.797L273.273 153.281C273.052 153.6 272.749 153.906 272.365 154.199C271.988 154.492 271.532 154.733 270.998 154.922C270.464 155.104 269.855 155.195 269.172 155.195ZM281.859 152.471V144.434H284.672V155H282.025L281.859 152.471ZM282.172 150.303L283.002 150.283C283.002 150.986 282.921 151.641 282.758 152.246C282.595 152.845 282.351 153.366 282.025 153.809C281.7 154.245 281.29 154.587 280.795 154.834C280.3 155.075 279.717 155.195 279.047 155.195C278.533 155.195 278.057 155.124 277.621 154.98C277.191 154.831 276.82 154.6 276.508 154.287C276.202 153.968 275.961 153.561 275.785 153.066C275.616 152.565 275.531 151.963 275.531 151.26V144.434H278.344V151.279C278.344 151.592 278.38 151.855 278.451 152.07C278.529 152.285 278.637 152.461 278.773 152.598C278.91 152.734 279.07 152.832 279.252 152.891C279.441 152.949 279.649 152.979 279.877 152.979C280.456 152.979 280.912 152.861 281.244 152.627C281.583 152.393 281.82 152.074 281.957 151.67C282.1 151.26 282.172 150.804 282.172 150.303ZM290.133 146.621V155H287.311V144.434H289.957L290.133 146.621ZM289.742 149.346H288.961C288.961 148.61 289.049 147.933 289.225 147.314C289.407 146.689 289.671 146.149 290.016 145.693C290.367 145.231 290.8 144.873 291.314 144.619C291.829 144.365 292.424 144.238 293.102 144.238C293.57 144.238 294 144.31 294.391 144.453C294.781 144.59 295.117 144.808 295.396 145.107C295.683 145.4 295.904 145.785 296.061 146.26C296.217 146.729 296.295 147.292 296.295 147.949V155H293.482V148.262C293.482 147.78 293.417 147.409 293.287 147.148C293.157 146.888 292.971 146.706 292.73 146.602C292.496 146.497 292.213 146.445 291.881 146.445C291.516 146.445 291.197 146.52 290.924 146.67C290.657 146.82 290.436 147.028 290.26 147.295C290.084 147.555 289.954 147.861 289.869 148.213C289.785 148.564 289.742 148.942 289.742 149.346ZM296.031 149.023L295.025 149.15C295.025 148.46 295.11 147.819 295.279 147.227C295.455 146.634 295.712 146.113 296.051 145.664C296.396 145.215 296.822 144.867 297.33 144.619C297.838 144.365 298.424 144.238 299.088 144.238C299.596 144.238 300.058 144.313 300.475 144.463C300.891 144.606 301.246 144.837 301.539 145.156C301.839 145.469 302.066 145.879 302.223 146.387C302.385 146.895 302.467 147.516 302.467 148.252V155H299.645V148.252C299.645 147.764 299.579 147.393 299.449 147.139C299.326 146.878 299.143 146.699 298.902 146.602C298.668 146.497 298.388 146.445 298.062 146.445C297.724 146.445 297.428 146.514 297.174 146.65C296.92 146.781 296.708 146.963 296.539 147.197C296.37 147.432 296.243 147.705 296.158 148.018C296.074 148.324 296.031 148.659 296.031 149.023Z" fill="black" fill-opacity="0.87"/>
        <rect x="8" y="168" width="358" height="60" rx="5" fill="#FBFBFB"/>
        <rect x="8.5" y="168.5" width="357" height="59" rx="4.5" stroke="black" stroke-opacity="0.05"/>
        <g filter="url(#filter1_d_309_2167)">
            <rect x="18" y="178" width="167" height="40" rx="5" fill="white" shape-rendering="crispEdges"/>
            <rect x="18.5" y="178.5" width="166" height="39" rx="4.5" stroke="black" stroke-opacity="0.05" shape-rendering="crispEdges"/>
            <path d="M80.2434 191.914V193.574H74.6237V204H72.5485V191.914H80.2434ZM73.9929 196.554H77.031C77.9496 196.554 78.7354 196.709 79.3884 197.019C80.0414 197.323 80.5394 197.752 80.8825 198.306C81.2256 198.859 81.3972 199.504 81.3972 200.24C81.3972 200.793 81.3003 201.299 81.1066 201.759C80.913 202.218 80.628 202.617 80.2517 202.954C79.8754 203.286 79.416 203.543 78.8737 203.726C78.3369 203.909 77.7227 204 77.031 204H72.5485V191.914H74.6403V202.348H77.031C77.5567 202.348 77.9883 202.251 78.3259 202.058C78.6634 201.858 78.9125 201.598 79.0729 201.277C79.239 200.956 79.322 200.605 79.322 200.223C79.322 199.852 79.239 199.515 79.0729 199.21C78.9125 198.906 78.6634 198.663 78.3259 198.48C77.9883 198.297 77.5567 198.206 77.031 198.206H73.9929V196.554ZM84.838 201.078L88.3658 195.019H90.3663V204H88.3658V197.932L84.838 204H82.8375V195.019H84.838V201.078ZM98.3477 195.019V196.612H93.9649V195.019H98.3477ZM99.9165 195.019V204H97.9161V195.019H99.9165ZM93.4751 195.019H95.4507L95.21 199.459C95.1768 200.118 95.1104 200.699 95.0108 201.203C94.9167 201.701 94.7894 202.13 94.6289 202.489C94.4685 202.843 94.272 203.131 94.0396 203.353C93.8072 203.574 93.536 203.737 93.2261 203.842C92.9162 203.947 92.5676 204 92.1802 204H91.5577L91.5494 202.356L91.8648 202.332C92.0695 202.315 92.2466 202.262 92.396 202.174C92.5454 202.08 92.6727 201.947 92.7779 201.775C92.8885 201.604 92.9771 201.382 93.0435 201.111C93.1154 200.84 93.1708 200.519 93.2095 200.148C93.2538 199.778 93.287 199.346 93.3091 198.854L93.4751 195.019ZM105.831 204.166C105.167 204.166 104.567 204.058 104.03 203.842C103.498 203.621 103.045 203.314 102.668 202.921C102.298 202.528 102.013 202.066 101.813 201.535C101.614 201.003 101.515 200.431 101.515 199.816V199.484C101.515 198.782 101.617 198.145 101.822 197.575C102.026 197.005 102.311 196.518 102.677 196.114C103.042 195.705 103.474 195.392 103.972 195.176C104.47 194.96 105.009 194.853 105.59 194.853C106.232 194.853 106.794 194.96 107.275 195.176C107.757 195.392 108.155 195.696 108.471 196.089C108.792 196.477 109.03 196.939 109.185 197.476C109.345 198.012 109.425 198.604 109.425 199.252V200.107H102.486V198.671H107.45V198.513C107.439 198.153 107.367 197.816 107.234 197.5C107.107 197.185 106.91 196.931 106.644 196.737C106.379 196.543 106.025 196.446 105.582 196.446C105.25 196.446 104.954 196.518 104.694 196.662C104.439 196.8 104.226 197.002 104.055 197.268C103.883 197.534 103.75 197.855 103.656 198.231C103.568 198.602 103.523 199.02 103.523 199.484V199.816C103.523 200.209 103.576 200.575 103.681 200.912C103.792 201.244 103.952 201.535 104.163 201.784C104.373 202.033 104.627 202.229 104.926 202.373C105.225 202.511 105.565 202.581 105.947 202.581C106.429 202.581 106.858 202.484 107.234 202.29C107.61 202.096 107.937 201.822 108.213 201.468L109.268 202.489C109.074 202.771 108.822 203.043 108.512 203.303C108.202 203.557 107.823 203.765 107.375 203.925C106.932 204.086 106.418 204.166 105.831 204.166ZM114.883 195.019V204H112.874V195.019H114.883ZM117.83 195.019V196.596H109.977V195.019H117.83ZM120.482 197.874H123.13C123.905 197.874 124.563 198.004 125.106 198.264C125.648 198.524 126.06 198.887 126.343 199.352C126.63 199.811 126.774 200.337 126.774 200.929C126.774 201.366 126.694 201.773 126.533 202.149C126.373 202.52 126.135 202.843 125.82 203.12C125.51 203.397 125.128 203.613 124.674 203.768C124.226 203.923 123.711 204 123.13 204H119.154V195.019H121.163V202.415H123.13C123.529 202.415 123.847 202.345 124.085 202.207C124.323 202.069 124.494 201.889 124.599 201.667C124.71 201.446 124.765 201.211 124.765 200.962C124.765 200.707 124.71 200.467 124.599 200.24C124.494 200.013 124.323 199.827 124.085 199.684C123.847 199.54 123.529 199.468 123.13 199.468H120.482V197.874ZM130.31 195.019V204H128.31V195.019H130.31Z" fill="#333333"/>
        </g>
        <path d="M246.703 191.914H248.787V195.658C248.787 196.228 248.873 196.676 249.044 197.002C249.216 197.323 249.476 197.55 249.824 197.683C250.179 197.816 250.619 197.882 251.144 197.882C251.399 197.882 251.667 197.871 251.949 197.849C252.232 197.827 252.514 197.797 252.796 197.758C253.084 197.714 253.361 197.664 253.626 197.608C253.892 197.548 254.135 197.481 254.357 197.409V199.061C254.141 199.127 253.903 199.191 253.643 199.252C253.388 199.313 253.123 199.365 252.846 199.41C252.569 199.448 252.287 199.479 251.999 199.501C251.711 199.523 251.427 199.534 251.144 199.534C250.231 199.534 249.443 199.404 248.779 199.144C248.114 198.878 247.603 198.461 247.243 197.891C246.883 197.321 246.703 196.576 246.703 195.658V191.914ZM253.884 191.914H255.967V204H253.884V191.914ZM262.056 204.166C261.392 204.166 260.791 204.058 260.255 203.842C259.723 203.621 259.27 203.314 258.893 202.921C258.522 202.528 258.237 202.066 258.038 201.535C257.839 201.003 257.739 200.431 257.739 199.816V199.484C257.739 198.782 257.842 198.145 258.047 197.575C258.251 197.005 258.536 196.518 258.902 196.114C259.267 195.705 259.698 195.392 260.196 195.176C260.694 194.96 261.234 194.853 261.815 194.853C262.457 194.853 263.019 194.96 263.5 195.176C263.982 195.392 264.38 195.696 264.695 196.089C265.016 196.477 265.254 196.939 265.409 197.476C265.57 198.012 265.65 198.604 265.65 199.252V200.107H258.711V198.671H263.674V198.513C263.663 198.153 263.591 197.816 263.459 197.5C263.331 197.185 263.135 196.931 262.869 196.737C262.604 196.543 262.25 196.446 261.807 196.446C261.475 196.446 261.179 196.518 260.919 196.662C260.664 196.8 260.451 197.002 260.279 197.268C260.108 197.534 259.975 197.855 259.881 198.231C259.792 198.602 259.748 199.02 259.748 199.484V199.816C259.748 200.209 259.801 200.575 259.906 200.912C260.017 201.244 260.177 201.535 260.387 201.784C260.598 202.033 260.852 202.229 261.151 202.373C261.45 202.511 261.79 202.581 262.172 202.581C262.653 202.581 263.082 202.484 263.459 202.29C263.835 202.096 264.161 201.822 264.438 201.468L265.492 202.489C265.299 202.771 265.047 203.043 264.737 203.303C264.427 203.557 264.048 203.765 263.6 203.925C263.157 204.086 262.642 204.166 262.056 204.166ZM269.199 195.019V204H267.198V195.019H269.199ZM275.059 195.019L271.017 200.422H268.734L268.468 198.613H270.137L272.561 195.019H275.059ZM272.718 204L270.012 200.082L271.589 198.945L275.35 204H272.718ZM282.302 195.019V196.612H277.919V195.019H282.302ZM283.871 195.019V204H281.87V195.019H283.871ZM277.429 195.019H279.405L279.164 199.459C279.131 200.118 279.064 200.699 278.965 201.203C278.871 201.701 278.743 202.13 278.583 202.489C278.423 202.843 278.226 203.131 277.994 203.353C277.761 203.574 277.49 203.737 277.18 203.842C276.87 203.947 276.522 204 276.134 204H275.512L275.503 202.356L275.819 202.332C276.024 202.315 276.201 202.262 276.35 202.174C276.5 202.08 276.627 201.947 276.732 201.775C276.843 201.604 276.931 201.382 276.998 201.111C277.069 200.84 277.125 200.519 277.164 200.148C277.208 199.778 277.241 199.346 277.263 198.854L277.429 195.019ZM287.892 201.078L291.42 195.019H293.421V204H291.42V197.932L287.892 204H285.892V195.019H287.892V201.078ZM299.036 202.572C299.363 202.572 299.656 202.509 299.916 202.381C300.182 202.249 300.395 202.066 300.556 201.833C300.722 201.601 300.813 201.333 300.829 201.028H302.714C302.703 201.609 302.531 202.138 302.199 202.614C301.867 203.09 301.427 203.469 300.879 203.751C300.331 204.028 299.725 204.166 299.061 204.166C298.375 204.166 297.778 204.05 297.268 203.817C296.759 203.579 296.336 203.253 295.998 202.838C295.661 202.423 295.406 201.944 295.235 201.402C295.069 200.86 294.986 200.278 294.986 199.659V199.368C294.986 198.748 295.069 198.167 295.235 197.625C295.406 197.077 295.661 196.596 295.998 196.181C296.336 195.766 296.759 195.442 297.268 195.209C297.778 194.972 298.372 194.853 299.053 194.853C299.772 194.853 300.403 194.996 300.946 195.284C301.488 195.566 301.914 195.962 302.224 196.471C302.539 196.975 302.703 197.561 302.714 198.231H300.829C300.813 197.899 300.73 197.6 300.58 197.334C300.437 197.063 300.232 196.847 299.966 196.687C299.706 196.527 299.393 196.446 299.028 196.446C298.624 196.446 298.289 196.529 298.024 196.695C297.758 196.856 297.551 197.077 297.401 197.359C297.252 197.636 297.144 197.949 297.077 198.297C297.017 198.64 296.986 198.997 296.986 199.368V199.659C296.986 200.029 297.017 200.389 297.077 200.738C297.138 201.086 297.243 201.399 297.393 201.676C297.548 201.947 297.758 202.166 298.024 202.332C298.289 202.492 298.627 202.572 299.036 202.572ZM308.246 195.019V204H306.238V195.019H308.246ZM311.193 195.019V196.596H303.341V195.019H311.193Z" fill="#BDBDBD"/>
        <path d="M355.953 378H168.657C167.476 377.999 166.325 378.366 165.363 379.049C164.4 379.731 163.675 380.697 163.287 381.81C162.496 384.09 161.014 386.066 159.046 387.466C157.079 388.865 154.724 389.616 152.309 389.616C149.893 389.616 147.538 388.865 145.571 387.466C143.603 386.066 142.121 384.09 141.33 381.81C140.943 380.701 140.22 379.739 139.262 379.056C138.305 378.374 137.159 378.005 135.983 378H36.0622C36.0622 380.631 35.5433 383.237 34.535 385.668C33.5267 388.099 32.0489 390.308 30.1859 392.169C28.3229 394.029 26.1112 395.505 23.6772 396.512C21.2432 397.518 18.6344 398.036 16 398.036V520.964C18.6344 520.964 21.2432 521.482 23.6772 522.488C26.1112 523.495 28.3229 524.971 30.1859 526.831C32.0489 528.692 33.5267 530.901 34.535 533.332C35.5433 535.763 36.0622 538.369 36.0622 541H135.983C137.163 541.001 138.315 540.635 139.277 539.952C140.24 539.269 140.965 538.304 141.353 537.19C142.143 534.91 143.625 532.934 145.593 531.534C147.561 530.135 149.916 529.384 152.331 529.384C154.746 529.384 157.101 530.135 159.069 531.534C161.036 532.934 162.518 534.91 163.309 537.19C163.696 538.299 164.419 539.262 165.376 539.944C166.334 540.627 167.48 540.996 168.657 541H355.941C355.941 538.369 356.46 535.764 357.468 533.333C358.476 530.902 359.954 528.693 361.816 526.833C363.679 524.972 365.89 523.496 368.324 522.489C370.758 521.482 373.366 520.964 376 520.964V398.036C370.682 398.033 365.583 395.921 361.824 392.164C358.064 388.406 355.953 383.312 355.953 378ZM151.356 395.426C151.348 395.294 151.367 395.162 151.412 395.037C151.457 394.912 151.527 394.798 151.618 394.702C151.708 394.605 151.818 394.528 151.94 394.476C152.061 394.423 152.193 394.396 152.325 394.396C152.458 394.396 152.589 394.423 152.711 394.476C152.833 394.528 152.942 394.605 153.033 394.702C153.124 394.798 153.194 394.912 153.239 395.037C153.284 395.162 153.303 395.294 153.295 395.426V406.656C153.303 406.788 153.284 406.921 153.239 407.045C153.194 407.17 153.124 407.284 153.033 407.381C152.942 407.477 152.833 407.554 152.711 407.607C152.589 407.659 152.458 407.686 152.325 407.686C152.193 407.686 152.061 407.659 151.94 407.607C151.818 407.554 151.708 407.477 151.618 407.381C151.527 407.284 151.457 407.17 151.412 407.045C151.367 406.921 151.348 406.788 151.356 406.656V395.426ZM151.356 414.659C151.348 414.527 151.367 414.395 151.412 414.27C151.457 414.145 151.527 414.031 151.618 413.935C151.708 413.838 151.818 413.761 151.94 413.709C152.061 413.656 152.193 413.629 152.325 413.629C152.458 413.629 152.589 413.656 152.711 413.709C152.833 413.761 152.942 413.838 153.033 413.935C153.124 414.031 153.194 414.145 153.239 414.27C153.284 414.395 153.303 414.527 153.295 414.659V425.889C153.295 426.08 153.238 426.267 153.132 426.426C153.026 426.586 152.875 426.71 152.698 426.783C152.521 426.856 152.326 426.875 152.138 426.838C151.95 426.801 151.778 426.708 151.642 426.573C151.551 426.484 151.479 426.377 151.43 426.26C151.38 426.142 151.355 426.016 151.356 425.889V414.659ZM151.356 433.892C151.348 433.76 151.367 433.627 151.412 433.503C151.457 433.378 151.527 433.264 151.618 433.168C151.708 433.071 151.818 432.994 151.94 432.942C152.061 432.889 152.193 432.862 152.325 432.862C152.458 432.862 152.589 432.889 152.711 432.942C152.833 432.994 152.942 433.071 153.033 433.168C153.124 433.264 153.194 433.378 153.239 433.503C153.284 433.627 153.303 433.76 153.295 433.892V445.122C153.295 445.313 153.238 445.5 153.132 445.659C153.026 445.818 152.875 445.943 152.698 446.016C152.521 446.089 152.326 446.108 152.138 446.071C151.95 446.033 151.778 445.941 151.642 445.806C151.551 445.717 151.479 445.61 151.43 445.493C151.38 445.375 151.355 445.249 151.356 445.122V433.892ZM151.356 453.125C151.356 452.868 151.458 452.621 151.64 452.439C151.822 452.257 152.07 452.155 152.327 452.155C152.455 452.154 152.581 452.179 152.699 452.229C152.816 452.278 152.923 452.35 153.012 452.441C153.102 452.531 153.173 452.637 153.222 452.755C153.27 452.872 153.295 452.998 153.295 453.125V464.355C153.294 464.611 153.191 464.856 153.01 465.037C152.829 465.218 152.583 465.32 152.327 465.321C152.071 465.319 151.825 465.217 151.644 465.036C151.462 464.855 151.359 464.611 151.356 464.355V453.125ZM151.356 472.358C151.348 472.226 151.367 472.093 151.412 471.969C151.457 471.844 151.527 471.73 151.618 471.633C151.708 471.537 151.818 471.46 151.94 471.407C152.061 471.355 152.193 471.328 152.325 471.328C152.458 471.328 152.589 471.355 152.711 471.407C152.833 471.46 152.942 471.537 153.033 471.633C153.124 471.73 153.194 471.844 153.239 471.969C153.284 472.093 153.303 472.226 153.295 472.358V483.588C153.295 483.779 153.238 483.966 153.132 484.125C153.026 484.284 152.875 484.408 152.698 484.482C152.521 484.555 152.326 484.574 152.138 484.537C151.95 484.499 151.778 484.407 151.642 484.272C151.551 484.182 151.479 484.076 151.43 483.959C151.38 483.841 151.355 483.715 151.356 483.588V472.358ZM153.295 522.05C153.295 522.306 153.193 522.553 153.012 522.734C152.83 522.916 152.584 523.019 152.327 523.02C152.07 523.018 151.824 522.915 151.642 522.734C151.461 522.552 151.358 522.306 151.356 522.05V510.82C151.348 510.688 151.367 510.555 151.412 510.431C151.457 510.306 151.527 510.192 151.618 510.095C151.708 509.999 151.818 509.922 151.94 509.869C152.061 509.817 152.193 509.79 152.325 509.79C152.458 509.79 152.589 509.817 152.711 509.869C152.833 509.922 152.942 509.999 153.033 510.095C153.124 510.192 153.194 510.306 153.239 510.431C153.284 510.555 153.303 510.688 153.295 510.82V522.05ZM153.295 502.82C153.295 503.012 153.238 503.199 153.132 503.358C153.026 503.517 152.875 503.641 152.698 503.714C152.521 503.788 152.326 503.807 152.138 503.769C151.95 503.732 151.778 503.64 151.642 503.504L151.613 503.475C151.448 503.296 151.357 503.063 151.356 502.82V491.591C151.356 491.399 151.413 491.212 151.519 491.052C151.626 490.893 151.777 490.769 151.954 490.695C152.131 490.622 152.326 490.602 152.515 490.639C152.703 490.676 152.876 490.768 153.012 490.903C153.181 491.072 153.28 491.297 153.291 491.535C153.293 491.554 153.293 491.572 153.291 491.591L153.295 502.82Z" fill="url(#paint0_linear_309_2167)"/>
        <path d="M37 409H68V440H37V409ZM61.5107 415.489H43.4743V433.526H61.5107V415.489Z" fill="black"/>
        <path d="M56 420H48V428H56V420Z" fill="black"/>
        <path d="M37 478H68V510H37V478ZM61.5107 484.695H43.4743V503.302H61.5107V484.695Z" fill="black"/>
        <path d="M56 490H48V498H56V490Z" fill="black"/>
        <path d="M108 409H138V440H108V409ZM131.72 415.489H114.265V433.526H131.72V415.489Z" fill="black"/>
        <path d="M126 420H118V428H126V420Z" fill="black"/>
        <path d="M44 443H37V449H44V443Z" fill="black"/>
        <path d="M44 449H37V456H44V449Z" fill="black"/>
        <path d="M44 456H37V463H44V456Z" fill="black"/>
        <path d="M57 443H50V449H57V443Z" fill="black"/>
        <path d="M57 449H50V456H57V449Z" fill="black"/>
        <path d="M57 456H50V463H57V456Z" fill="black"/>
        <path d="M64 463H57V469H64V463Z" fill="black"/>
        <path d="M71 443H64V449H71V443Z" fill="black"/>
        <path d="M71 456H64V463H71V456Z" fill="black"/>
        <path d="M78 409H71V415H78V409Z" fill="black"/>
        <path d="M78 422H71V429H78V422Z" fill="black"/>
        <path d="M78 429H71V436H78V429Z" fill="black"/>
        <path d="M78 436H71V443H78V436Z" fill="black"/>
        <path d="M78 463H71V469H78V463Z" fill="black"/>
        <path d="M84 415H78V422H84V415Z" fill="black"/>
        <path d="M84 429H78V436H84V429Z" fill="black"/>
        <path d="M84 443H78V449H84V443Z" fill="black"/>
        <path d="M84 449H78V456H84V449Z" fill="black"/>
        <path d="M84 456H78V463H84V456Z" fill="black"/>
        <path d="M91 422H84V429H91V422Z" fill="black"/>
        <path d="M91 443V449H84V443" fill="black"/>
        <path d="M91 456H84V463H91V456Z" fill="black"/>
        <path d="M91 463H84V469H91V463Z" fill="black"/>
        <path d="M98 409H91V415H98V409Z" fill="black"/>
        <path d="M98 422H91V429H98V422Z" fill="black"/>
        <path d="M98 436H91V443H98V436Z" fill="black"/>
        <path d="M98 456H91V463H98V456Z" fill="black"/>
        <path d="M105 409H98V415H105V409Z" fill="black"/>
        <path d="M105 422H98V429H105V422Z" fill="black"/>
        <path d="M105 429H98V436H105V429Z" fill="black"/>
        <path d="M105 436H98V443H105V436Z" fill="black"/>
        <path d="M105 443H98V449H105V443Z" fill="black"/>
        <path d="M105 449H98V456H105V449Z" fill="black"/>
        <path d="M105 456H98V463H105V456Z" fill="black"/>
        <path d="M105 463H98V469H105V463Z" fill="black"/>
        <path d="M111 443H105V449H111V443Z" fill="black"/>
        <path d="M111 463H105V469H111V463Z" fill="black"/>
        <path d="M111 456H105V463H111V456Z" fill="black"/>
        <path d="M118 449H111V456H118V449Z" fill="black"/>
        <path d="M131 449H124V456H131V449Z" fill="black"/>
        <path d="M131 463H124V469H131V463Z" fill="black"/>
        <path d="M138 443H131V449H138V443Z" fill="black"/>
        <path d="M138 456H131V463H138V456Z" fill="black"/>
        <path d="M44 470H37V476H44V470Z" fill="black"/>
        <path d="M57 470H50V476H57V470Z" fill="black"/>
        <path d="M64 470H57V476H64V470Z" fill="black"/>
        <path d="M71 470H64V476H71V470Z" fill="black"/>
        <path d="M78 476H71V483H78V476Z" fill="black"/>
        <path d="M78 489H71V496H78V489Z" fill="black"/>
        <path d="M78 496H71V503H78V496Z" fill="black"/>
        <path d="M78 503H71V510H78V503Z" fill="black"/>
        <path d="M84 470H78V476H84V470Z" fill="black"/>
        <path d="M84 503H78V510H84V503Z" fill="black"/>
        <path d="M91 470H84V476H91V470Z" fill="black"/>
        <path d="M91 483H84V489H91V483Z" fill="black"/>
        <path d="M91 489H84V496H91V489Z" fill="black"/>
        <path d="M91 496H84V503H91V496Z" fill="black"/>
        <path d="M98 483H91V489H98V483Z" fill="black"/>
        <path d="M105 470H98V476H105V470Z" fill="black"/>
        <path d="M105 483H98V489H105V483Z" fill="black"/>
        <path d="M105 489H98V496H105V489Z" fill="black"/>
        <path d="M105 496H98V503H105V496Z" fill="black"/>
        <path d="M111 476H105V483H111V476Z" fill="black"/>
        <path d="M111 483H105V489H111V483Z" fill="black"/>
        <path d="M111 496H105V503H111V496Z" fill="black"/>
        <path d="M118 476H111V483H118V476Z" fill="black"/>
        <path d="M118 489H111V496H118V489Z" fill="black"/>
        <path d="M118 503H111V510H118V503Z" fill="black"/>
        <path d="M124 470H118V476H124V470Z" fill="black"/>
        <path d="M124 483H118V489H124V483Z" fill="black"/>
        <path d="M124 489H118V496H124V489Z" fill="black"/>
        <path d="M124 496H118V503H124V496Z" fill="black"/>
        <path d="M131 470H124V476H131V470Z" fill="black"/>
        <path d="M131 489H124V496H131V489Z" fill="black"/>
        <path d="M131 503H124V510H131V503Z" fill="black"/>
        <path d="M138 470H131V476H138V470Z" fill="black"/>
        <path d="M138 476H131V483H138V476Z" fill="black"/>
        <path d="M138 483H131V489H138V483Z" fill="black"/>
        <path d="M33.2109 312.668V315H20.6367V312.668H33.2109ZM21.3633 312.668V319.195H18.5508L18.4453 312.668H21.3633ZM35.4844 312.668L35.3086 319.184H32.543V312.668H35.4844ZM31.1484 297.938V300.281H23.2734V297.938H31.1484ZM33.3984 297.938V315H30.4688V297.938H33.3984ZM22.6875 297.938H25.6289L25.2188 304.852C25.1562 305.945 25.043 306.93 24.8789 307.805C24.7148 308.68 24.5156 309.465 24.2812 310.16C24.0547 310.848 23.7969 311.457 23.5078 311.988C23.2188 312.512 22.9102 312.965 22.582 313.348C22.2539 313.73 21.918 314.059 21.5742 314.332C21.2383 314.598 20.9062 314.82 20.5781 315H19.0078V312.668H19.7695C19.9805 312.473 20.2148 312.191 20.4727 311.824C20.7305 311.449 20.9805 310.961 21.2227 310.359C21.4727 309.75 21.6914 308.996 21.8789 308.098C22.0664 307.199 22.1953 306.117 22.2656 304.852L22.6875 297.938ZM36.6506 308.801V308.531C36.6506 307.617 36.7834 306.77 37.0491 305.988C37.3147 305.199 37.6975 304.516 38.1975 303.938C38.7053 303.352 39.3225 302.898 40.0491 302.578C40.7834 302.25 41.6116 302.086 42.5334 302.086C43.4631 302.086 44.2913 302.25 45.0178 302.578C45.7522 302.898 46.3733 303.352 46.8811 303.938C47.3889 304.516 47.7756 305.199 48.0413 305.988C48.3069 306.77 48.4397 307.617 48.4397 308.531V308.801C48.4397 309.715 48.3069 310.562 48.0413 311.344C47.7756 312.125 47.3889 312.809 46.8811 313.395C46.3733 313.973 45.7561 314.426 45.0295 314.754C44.303 315.074 43.4788 315.234 42.5569 315.234C41.6272 315.234 40.7952 315.074 40.0608 314.754C39.3342 314.426 38.717 313.973 38.2092 313.395C37.7014 312.809 37.3147 312.125 37.0491 311.344C36.7834 310.562 36.6506 309.715 36.6506 308.801ZM39.4748 308.531V308.801C39.4748 309.371 39.5334 309.91 39.6506 310.418C39.7678 310.926 39.9514 311.371 40.2014 311.754C40.4514 312.137 40.7717 312.438 41.1623 312.656C41.553 312.875 42.0178 312.984 42.5569 312.984C43.0803 312.984 43.5334 312.875 43.9163 312.656C44.3069 312.438 44.6272 312.137 44.8772 311.754C45.1272 311.371 45.3108 310.926 45.428 310.418C45.553 309.91 45.6155 309.371 45.6155 308.801V308.531C45.6155 307.969 45.553 307.438 45.428 306.938C45.3108 306.43 45.1233 305.98 44.8655 305.59C44.6155 305.199 44.2952 304.895 43.9045 304.676C43.5217 304.449 43.0647 304.336 42.5334 304.336C42.0022 304.336 41.5413 304.449 41.1506 304.676C40.7678 304.895 40.4514 305.199 40.2014 305.59C39.9514 305.98 39.7678 306.43 39.6506 306.938C39.5334 307.438 39.4748 307.969 39.4748 308.531ZM58.5239 296.766H60.8091C60.8091 297.461 60.7114 298.035 60.5161 298.488C60.3286 298.934 60.0473 299.301 59.6723 299.59C59.3052 299.871 58.8481 300.098 58.3013 300.27C57.7622 300.441 57.1372 300.598 56.4263 300.738C55.77 300.879 55.1763 301.102 54.645 301.406C54.1216 301.703 53.6802 302.121 53.3208 302.66C52.9692 303.191 52.7153 303.875 52.5591 304.711C52.4028 305.547 52.3559 306.566 52.4184 307.77V308.566L50.1802 308.766V307.969C50.1802 306.477 50.3169 305.176 50.5903 304.066C50.8638 302.957 51.2505 302.023 51.7505 301.266C52.2583 300.5 52.8598 299.891 53.5552 299.438C54.2583 298.984 55.0395 298.672 55.8989 298.5C56.4848 298.375 56.9731 298.25 57.3638 298.125C57.7544 297.992 58.0434 297.824 58.2309 297.621C58.4263 297.41 58.5239 297.125 58.5239 296.766ZM56.5434 303.035C57.3872 303.035 58.1372 303.184 58.7934 303.48C59.4497 303.77 60.0044 304.176 60.4575 304.699C60.9106 305.223 61.2544 305.84 61.4888 306.551C61.7309 307.262 61.852 308.035 61.852 308.871V309.129C61.852 310.004 61.7231 310.812 61.4653 311.555C61.2075 312.297 60.8286 312.945 60.3286 313.5C59.8286 314.047 59.2153 314.477 58.4888 314.789C57.77 315.094 56.9458 315.246 56.0161 315.246C55.0942 315.246 54.27 315.086 53.5434 314.766C52.8169 314.445 52.2036 314 51.7036 313.43C51.2036 312.852 50.8247 312.176 50.5669 311.402C50.3091 310.629 50.1802 309.785 50.1802 308.871V308.613C50.1723 308.449 50.2153 308.289 50.3091 308.133C50.4106 307.977 50.5317 307.809 50.6723 307.629C50.813 307.449 50.938 307.242 51.0473 307.008C51.438 306.219 51.8989 305.527 52.4302 304.934C52.9614 304.34 53.5669 303.875 54.2466 303.539C54.9341 303.203 55.6997 303.035 56.5434 303.035ZM55.9927 305.273C55.2895 305.273 54.7153 305.441 54.27 305.777C53.8325 306.105 53.5083 306.543 53.2973 307.09C53.0942 307.637 52.9927 308.23 52.9927 308.871V309.129C52.9927 309.652 53.0513 310.148 53.1684 310.617C53.2856 311.086 53.4614 311.5 53.6958 311.859C53.938 312.211 54.2505 312.488 54.6333 312.691C55.0239 312.895 55.4848 312.996 56.0161 312.996C56.5552 312.996 57.0122 312.895 57.3872 312.691C57.77 312.488 58.0786 312.211 58.313 311.859C58.5552 311.5 58.7309 311.086 58.8403 310.617C58.9575 310.148 59.0161 309.652 59.0161 309.129V308.871C59.0161 308.387 58.9575 307.93 58.8403 307.5C58.7309 307.07 58.5552 306.691 58.313 306.363C58.0708 306.027 57.7583 305.762 57.3755 305.566C56.9927 305.371 56.5317 305.273 55.9927 305.273ZM70.9753 312.457V306.41C70.9753 305.957 70.8933 305.566 70.7292 305.238C70.5652 304.91 70.3152 304.656 69.9792 304.477C69.6511 304.297 69.237 304.207 68.737 304.207C68.2761 304.207 67.8777 304.285 67.5417 304.441C67.2058 304.598 66.9441 304.809 66.7566 305.074C66.5691 305.34 66.4753 305.641 66.4753 305.977H63.6628C63.6628 305.477 63.7839 304.992 64.0261 304.523C64.2683 304.055 64.6198 303.637 65.0808 303.27C65.5417 302.902 66.0925 302.613 66.7331 302.402C67.3737 302.191 68.0925 302.086 68.8894 302.086C69.8425 302.086 70.6862 302.246 71.4206 302.566C72.1628 302.887 72.7448 303.371 73.1667 304.02C73.5964 304.66 73.8112 305.465 73.8112 306.434V312.07C73.8112 312.648 73.8503 313.168 73.9284 313.629C74.0144 314.082 74.1355 314.477 74.2917 314.812V315H71.3972C71.2644 314.695 71.1589 314.309 71.0808 313.84C71.0105 313.363 70.9753 312.902 70.9753 312.457ZM71.3855 307.289L71.4089 309.035H69.3816C68.8581 309.035 68.3972 309.086 67.9987 309.188C67.6003 309.281 67.2683 309.422 67.0027 309.609C66.737 309.797 66.5378 310.023 66.405 310.289C66.2722 310.555 66.2058 310.855 66.2058 311.191C66.2058 311.527 66.2839 311.836 66.4402 312.117C66.5964 312.391 66.823 312.605 67.1198 312.762C67.4245 312.918 67.7917 312.996 68.2214 312.996C68.7995 312.996 69.3034 312.879 69.7331 312.645C70.1706 312.402 70.5144 312.109 70.7644 311.766C71.0144 311.414 71.1472 311.082 71.1628 310.77L72.0769 312.023C71.9831 312.344 71.823 312.688 71.5964 313.055C71.3698 313.422 71.073 313.773 70.7058 314.109C70.3464 314.438 69.9128 314.707 69.405 314.918C68.905 315.129 68.3269 315.234 67.6706 315.234C66.8425 315.234 66.1042 315.07 65.4558 314.742C64.8073 314.406 64.2995 313.957 63.9323 313.395C63.5652 312.824 63.3816 312.18 63.3816 311.461C63.3816 310.789 63.5066 310.195 63.7566 309.68C64.0144 309.156 64.3894 308.719 64.8816 308.367C65.3816 308.016 65.9909 307.75 66.7097 307.57C67.4284 307.383 68.2487 307.289 69.1706 307.289H71.3855ZM82.6884 309.574H78.6338L78.6103 307.582H81.9384C82.4853 307.582 82.9345 307.527 83.2861 307.418C83.6455 307.309 83.9111 307.145 84.083 306.926C84.2548 306.699 84.3408 306.426 84.3408 306.105C84.3408 305.84 84.29 305.609 84.1884 305.414C84.0869 305.211 83.9306 305.047 83.7197 304.922C83.5166 304.789 83.2588 304.695 82.9463 304.641C82.6416 304.578 82.2861 304.547 81.8798 304.547H79.5713V315H76.747V302.32H81.8798C82.6923 302.32 83.4228 302.391 84.0713 302.531C84.7275 302.672 85.2861 302.887 85.747 303.176C86.208 303.465 86.5595 303.832 86.8017 304.277C87.0517 304.715 87.1767 305.23 87.1767 305.824C87.1767 306.215 87.0908 306.582 86.9189 306.926C86.7548 307.27 86.5088 307.574 86.1806 307.84C85.8525 308.105 85.4502 308.324 84.9736 308.496C84.497 308.66 83.9502 308.762 83.333 308.801L82.6884 309.574ZM82.6884 315H77.8134L78.9384 312.773H82.6884C83.1884 312.773 83.6025 312.711 83.9306 312.586C84.2588 312.461 84.5009 312.281 84.6572 312.047C84.8213 311.805 84.9033 311.52 84.9033 311.191C84.9033 310.855 84.8252 310.566 84.6689 310.324C84.5127 310.082 84.2705 309.898 83.9423 309.773C83.622 309.641 83.2041 309.574 82.6884 309.574H79.4658L79.4892 307.582H83.3213L84.1298 308.355C84.9345 308.41 85.6025 308.582 86.1338 308.871C86.665 309.16 87.0634 309.523 87.3291 309.961C87.5947 310.398 87.7275 310.875 87.7275 311.391C87.7275 311.984 87.6142 312.508 87.3877 312.961C87.1689 313.414 86.8408 313.793 86.4033 314.098C85.9736 314.395 85.4463 314.621 84.8213 314.777C84.1963 314.926 83.4853 315 82.6884 315ZM98.4445 302.32V304.57H92.257V302.32H98.4445ZM100.659 302.32V315H97.8352V302.32H100.659ZM91.5656 302.32H94.3547L94.0148 308.59C93.968 309.52 93.8742 310.34 93.7336 311.051C93.6008 311.754 93.4211 312.359 93.1945 312.867C92.968 313.367 92.6906 313.773 92.3625 314.086C92.0344 314.398 91.6516 314.629 91.2141 314.777C90.7766 314.926 90.2844 315 89.7375 315H88.8586L88.8469 312.68L89.2922 312.645C89.5813 312.621 89.8313 312.547 90.0422 312.422C90.2531 312.289 90.4328 312.102 90.5813 311.859C90.7375 311.617 90.8625 311.305 90.9563 310.922C91.0578 310.539 91.1359 310.086 91.1906 309.562C91.2531 309.039 91.3 308.43 91.3313 307.734L91.5656 302.32ZM109.009 315.234C108.072 315.234 107.224 315.082 106.466 314.777C105.716 314.465 105.076 314.031 104.544 313.477C104.021 312.922 103.619 312.27 103.337 311.52C103.056 310.77 102.915 309.961 102.915 309.094V308.625C102.915 307.633 103.06 306.734 103.349 305.93C103.638 305.125 104.04 304.438 104.556 303.867C105.072 303.289 105.681 302.848 106.384 302.543C107.087 302.238 107.849 302.086 108.669 302.086C109.576 302.086 110.369 302.238 111.048 302.543C111.728 302.848 112.29 303.277 112.736 303.832C113.189 304.379 113.525 305.031 113.744 305.789C113.97 306.547 114.083 307.383 114.083 308.297V309.504H104.287V307.477H111.294V307.254C111.279 306.746 111.177 306.27 110.99 305.824C110.81 305.379 110.533 305.02 110.158 304.746C109.783 304.473 109.283 304.336 108.658 304.336C108.189 304.336 107.771 304.438 107.404 304.641C107.044 304.836 106.744 305.121 106.501 305.496C106.259 305.871 106.072 306.324 105.939 306.855C105.814 307.379 105.751 307.969 105.751 308.625V309.094C105.751 309.648 105.826 310.164 105.974 310.641C106.13 311.109 106.357 311.52 106.654 311.871C106.951 312.223 107.31 312.5 107.732 312.703C108.154 312.898 108.634 312.996 109.173 312.996C109.853 312.996 110.458 312.859 110.99 312.586C111.521 312.312 111.982 311.926 112.372 311.426L113.861 312.867C113.587 313.266 113.232 313.648 112.794 314.016C112.357 314.375 111.822 314.668 111.189 314.895C110.564 315.121 109.837 315.234 109.009 315.234ZM124.707 307.617V309.844H118.144V307.617H124.707ZM118.965 302.32V315H116.14V302.32H118.965ZM126.746 302.32V315H123.922V302.32H126.746ZM138.178 307.617V309.844H131.615V307.617H138.178ZM132.435 302.32V315H129.611V302.32H132.435ZM140.217 302.32V315H137.393V302.32H140.217ZM145.086 306.352H148.824C149.918 306.352 150.848 306.535 151.613 306.902C152.379 307.27 152.961 307.781 153.36 308.438C153.766 309.086 153.969 309.828 153.969 310.664C153.969 311.281 153.856 311.855 153.629 312.387C153.402 312.91 153.067 313.367 152.621 313.758C152.184 314.148 151.645 314.453 151.004 314.672C150.371 314.891 149.645 315 148.824 315H143.211V302.32H146.047V312.762H148.824C149.387 312.762 149.836 312.664 150.172 312.469C150.508 312.273 150.75 312.02 150.899 311.707C151.055 311.395 151.133 311.062 151.133 310.711C151.133 310.352 151.055 310.012 150.899 309.691C150.75 309.371 150.508 309.109 150.172 308.906C149.836 308.703 149.387 308.602 148.824 308.602H145.086V306.352ZM158.961 302.32V315H156.137V302.32H158.961ZM167.651 315.234C166.713 315.234 165.866 315.082 165.108 314.777C164.358 314.465 163.717 314.031 163.186 313.477C162.663 312.922 162.26 312.27 161.979 311.52C161.698 310.77 161.557 309.961 161.557 309.094V308.625C161.557 307.633 161.702 306.734 161.991 305.93C162.28 305.125 162.682 304.438 163.198 303.867C163.713 303.289 164.323 302.848 165.026 302.543C165.729 302.238 166.491 302.086 167.311 302.086C168.217 302.086 169.01 302.238 169.69 302.543C170.37 302.848 170.932 303.277 171.377 303.832C171.83 304.379 172.166 305.031 172.385 305.789C172.612 306.547 172.725 307.383 172.725 308.297V309.504H162.928V307.477H169.936V307.254C169.92 306.746 169.819 306.27 169.631 305.824C169.452 305.379 169.174 305.02 168.799 304.746C168.424 304.473 167.924 304.336 167.299 304.336C166.83 304.336 166.413 304.438 166.045 304.641C165.686 304.836 165.385 305.121 165.143 305.496C164.901 305.871 164.713 306.324 164.58 306.855C164.455 307.379 164.393 307.969 164.393 308.625V309.094C164.393 309.648 164.467 310.164 164.616 310.641C164.772 311.109 164.998 311.52 165.295 311.871C165.592 312.223 165.952 312.5 166.373 312.703C166.795 312.898 167.276 312.996 167.815 312.996C168.495 312.996 169.1 312.859 169.631 312.586C170.163 312.312 170.623 311.926 171.014 311.426L172.502 312.867C172.229 313.266 171.873 313.648 171.436 314.016C170.998 314.375 170.463 314.668 169.83 314.895C169.205 315.121 168.479 315.234 167.651 315.234Z" fill="black"/>
        <path d="M26.1313 325.758V335H24.9126V326.761H20.355V335H19.1299V325.758H26.1313ZM32.7045 331.109V332.061H29.0736V331.109H32.7045ZM29.3212 328.132V335H28.1469V328.132H29.3212ZM33.6566 328.132V335H32.476V328.132H33.6566ZM36.4846 333.604V334.549C36.4846 334.934 36.3873 335.341 36.1926 335.768C35.998 336.2 35.725 336.559 35.3738 336.847L34.7073 336.384C34.8427 336.198 34.957 336.007 35.0501 335.812C35.1432 335.622 35.213 335.423 35.2595 335.216C35.3103 335.013 35.3357 334.797 35.3357 334.568V333.604H36.4846ZM42.3057 330.601L41.3662 330.36L41.8296 325.758H46.5713V326.843H42.8262L42.5469 329.357C42.7162 329.26 42.9299 329.169 43.188 329.084C43.4504 328.999 43.7508 328.957 44.0894 328.957C44.5168 328.957 44.8998 329.031 45.2383 329.179C45.5768 329.323 45.8646 329.53 46.1016 329.801C46.3428 330.072 46.5269 330.398 46.6538 330.779C46.7808 331.16 46.8443 331.585 46.8443 332.055C46.8443 332.499 46.7829 332.907 46.6602 333.28C46.5417 333.652 46.3618 333.978 46.1206 334.257C45.8794 334.532 45.5747 334.746 45.2066 334.898C44.8426 335.051 44.4131 335.127 43.918 335.127C43.5456 335.127 43.1922 335.076 42.8579 334.975C42.5279 334.869 42.2316 334.71 41.9693 334.499C41.7111 334.283 41.4995 334.016 41.3345 333.699C41.1737 333.377 41.0721 333 41.0298 332.569H42.147C42.1978 332.916 42.2993 333.208 42.4517 333.445C42.604 333.682 42.8029 333.862 43.0484 333.984C43.298 334.103 43.5879 334.162 43.918 334.162C44.1973 334.162 44.4448 334.113 44.6607 334.016C44.8765 333.919 45.0585 333.779 45.2066 333.597C45.3547 333.415 45.4668 333.195 45.543 332.937C45.6234 332.679 45.6636 332.389 45.6636 332.067C45.6636 331.775 45.6234 331.505 45.543 331.255C45.4626 331.005 45.342 330.787 45.1812 330.601C45.0246 330.415 44.8321 330.271 44.6035 330.169C44.375 330.064 44.1126 330.011 43.8164 330.011C43.4229 330.011 43.1245 330.064 42.9214 330.169C42.7225 330.275 42.5173 330.419 42.3057 330.601ZM55.2742 333.826V330.29C55.2742 330.019 55.2192 329.784 55.1092 329.585C55.0034 329.382 54.8426 329.226 54.6267 329.116C54.4109 329.006 54.1443 328.951 53.8269 328.951C53.5307 328.951 53.2705 329.001 53.0462 329.103C52.8261 329.205 52.6526 329.338 52.5257 329.503C52.4029 329.668 52.3416 329.846 52.3416 330.036H51.1673C51.1673 329.791 51.2307 329.547 51.3577 329.306C51.4846 329.065 51.6666 328.847 51.9036 328.652C52.1448 328.453 52.4326 328.297 52.7669 328.183C53.1054 328.064 53.482 328.005 53.8968 328.005C54.3961 328.005 54.8362 328.09 55.2171 328.259C55.6022 328.428 55.9026 328.684 56.1184 329.027C56.3385 329.365 56.4485 329.791 56.4485 330.303V333.502C56.4485 333.73 56.4676 333.974 56.5056 334.232C56.548 334.49 56.6093 334.712 56.6897 334.898V335H55.4646C55.4054 334.865 55.3588 334.685 55.325 334.46C55.2911 334.232 55.2742 334.02 55.2742 333.826ZM55.4773 330.836L55.49 331.661H54.303C53.9687 331.661 53.6704 331.689 53.408 331.744C53.1456 331.794 52.9256 331.873 52.7478 331.979C52.5701 332.084 52.4347 332.218 52.3416 332.378C52.2485 332.535 52.2019 332.719 52.2019 332.931C52.2019 333.146 52.2506 333.343 52.3479 333.521C52.4453 333.699 52.5913 333.84 52.7859 333.946C52.9848 334.048 53.2281 334.099 53.5159 334.099C53.8756 334.099 54.193 334.022 54.468 333.87C54.7431 333.718 54.961 333.532 55.1219 333.312C55.2869 333.091 55.3758 332.878 55.3885 332.67L55.8899 333.235C55.8603 333.413 55.7799 333.61 55.6487 333.826C55.5175 334.042 55.3419 334.249 55.1219 334.448C54.906 334.642 54.6479 334.805 54.3474 334.937C54.0512 335.063 53.7169 335.127 53.3445 335.127C52.879 335.127 52.4707 335.036 52.1194 334.854C51.7724 334.672 51.5016 334.429 51.3069 334.124C51.1165 333.815 51.0213 333.47 51.0213 333.089C51.0213 332.721 51.0932 332.397 51.2371 332.118C51.381 331.835 51.5883 331.6 51.8592 331.414C52.13 331.223 52.4558 331.079 52.8367 330.982C53.2176 330.885 53.6429 330.836 54.1126 330.836H55.4773ZM62.7423 328.132V329.103H59.2702V328.132H62.7423ZM59.4416 328.132V335H58.2672V328.132H59.4416ZM63.7834 328.132V335H62.6027V328.132H63.7834ZM66.7129 329.452V337.641H65.5323V328.132H66.6114L66.7129 329.452ZM71.3404 331.509V331.642C71.3404 332.141 71.2811 332.605 71.1626 333.032C71.0441 333.455 70.8706 333.824 70.6421 334.137C70.4178 334.45 70.1407 334.693 69.8106 334.867C69.4805 335.04 69.1018 335.127 68.6744 335.127C68.2385 335.127 67.8534 335.055 67.5191 334.911C67.1848 334.767 66.9012 334.558 66.6685 334.283C66.4357 334.008 66.2495 333.678 66.1099 333.292C65.9745 332.907 65.8814 332.474 65.8306 331.991V331.28C65.8814 330.772 65.9766 330.318 66.1162 329.916C66.2559 329.514 66.44 329.171 66.6685 328.887C66.9012 328.599 67.1827 328.382 67.5127 328.233C67.8428 328.081 68.2237 328.005 68.6553 328.005C69.087 328.005 69.4699 328.09 69.8042 328.259C70.1385 328.424 70.42 328.661 70.6485 328.97C70.877 329.279 71.0484 329.649 71.1626 330.081C71.2811 330.508 71.3404 330.984 71.3404 331.509ZM70.1597 331.642V331.509C70.1597 331.166 70.1237 330.844 70.0518 330.544C69.9799 330.239 69.8677 329.973 69.7154 329.744C69.5673 329.511 69.3768 329.329 69.1441 329.198C68.9113 329.063 68.6342 328.995 68.3125 328.995C68.0163 328.995 67.7582 329.046 67.5381 329.147C67.3223 329.249 67.1382 329.387 66.9859 329.56C66.8335 329.729 66.7087 329.924 66.6114 330.144C66.5183 330.36 66.4484 330.584 66.4019 330.817V332.461C66.4865 332.757 66.605 333.036 66.7574 333.299C66.9097 333.557 67.1128 333.766 67.3667 333.927C67.6206 334.084 67.9401 334.162 68.3252 334.162C68.6426 334.162 68.9156 334.097 69.1441 333.965C69.3768 333.83 69.5673 333.646 69.7154 333.413C69.8677 333.18 69.9799 332.914 70.0518 332.613C70.1237 332.309 70.1597 331.985 70.1597 331.642ZM75.5585 335.127C75.0803 335.127 74.6466 335.047 74.2572 334.886C73.8722 334.721 73.54 334.49 73.2607 334.194C72.9856 333.898 72.774 333.546 72.6259 333.14C72.4778 332.734 72.4037 332.29 72.4037 331.807V331.541C72.4037 330.982 72.4863 330.485 72.6513 330.049C72.8163 329.609 73.0406 329.236 73.3241 328.932C73.6077 328.627 73.9293 328.396 74.289 328.24C74.6487 328.083 75.0211 328.005 75.4062 328.005C75.8971 328.005 76.3202 328.09 76.6757 328.259C77.0354 328.428 77.3295 328.665 77.558 328.97C77.7865 329.27 77.9558 329.626 78.0658 330.036C78.1759 330.442 78.2309 330.887 78.2309 331.369V331.896H73.102V330.938H77.0566V330.849C77.0396 330.544 76.9762 330.248 76.8661 329.96C76.7603 329.672 76.5911 329.435 76.3583 329.249C76.1256 329.063 75.8082 328.97 75.4062 328.97C75.1396 328.97 74.8941 329.027 74.6698 329.141C74.4456 329.251 74.253 329.416 74.0922 329.636C73.9314 329.856 73.8066 330.125 73.7177 330.442C73.6288 330.76 73.5844 331.126 73.5844 331.541V331.807C73.5844 332.133 73.6288 332.44 73.7177 332.728C73.8108 333.011 73.9441 333.261 74.1176 333.477C74.2953 333.692 74.509 333.862 74.7587 333.984C75.0126 334.107 75.3004 334.168 75.622 334.168C76.0367 334.168 76.3879 334.084 76.6757 333.915C76.9635 333.745 77.2153 333.519 77.4311 333.235L78.142 333.8C77.9939 334.025 77.8056 334.238 77.5771 334.441C77.3486 334.645 77.0671 334.81 76.7328 334.937C76.4028 335.063 76.0113 335.127 75.5585 335.127ZM84.0613 328.132V329.103H80.7415V328.132H84.0613ZM85.096 328.132V335H83.9217V328.132H85.096ZM80.4559 328.132H81.6365L81.4588 331.445C81.4292 331.957 81.3805 332.41 81.3128 332.804C81.2493 333.193 81.1604 333.527 81.0462 333.807C80.9362 334.086 80.7965 334.314 80.6272 334.492C80.4622 334.666 80.2633 334.795 80.0306 334.879C79.7978 334.96 79.5291 335 79.2244 335H78.8563V333.965L79.1102 333.946C79.2921 333.934 79.4466 333.891 79.5735 333.819C79.7047 333.747 79.8147 333.642 79.9036 333.502C79.9925 333.358 80.0644 333.174 80.1194 332.95C80.1787 332.725 80.2231 332.459 80.2527 332.15C80.2866 331.841 80.312 331.481 80.3289 331.071L80.4559 328.132ZM88.2477 331.725H89.5173L87.5304 335H86.2609L88.2477 331.725ZM89.2316 328.132H92.1008V335H90.9264V329.084H89.2316C88.8973 329.084 88.6244 329.141 88.4128 329.255C88.2012 329.365 88.0467 329.509 87.9494 329.687C87.8521 329.865 87.8034 330.049 87.8034 330.239C87.8034 330.425 87.8478 330.605 87.9367 330.779C88.0256 330.948 88.1652 331.088 88.3556 331.198C88.5461 331.308 88.7915 331.363 89.092 331.363H91.2438V332.328H89.092C88.6984 332.328 88.3493 332.275 88.0446 332.169C87.7399 332.063 87.4818 331.917 87.2702 331.731C87.0586 331.541 86.8978 331.318 86.7878 331.064C86.6777 330.806 86.6227 330.527 86.6227 330.227C86.6227 329.926 86.6799 329.649 86.7941 329.395C86.9126 329.141 87.0819 328.919 87.3019 328.729C87.5262 328.538 87.7992 328.392 88.1208 328.291C88.4466 328.185 88.8169 328.132 89.2316 328.132Z" fill="#828282"/>
        <rect x="253" y="295.5" width="123" height="40" rx="12" fill="#E3EBF8"/>
        <path d="M277.932 315.017V316.461H269.647V315.017H277.932ZM274.562 311.489V320.288H273.026V311.489H274.562ZM293.43 320.197V321.5H284.282V320.197H293.43ZM284.539 320.197V324.472H282.954L282.946 320.197H284.539ZM294.824 320.197L294.807 324.463H293.222V320.197H294.824ZM291.861 309.414V310.726H286.565V309.414H291.861ZM293.239 309.414V321.5H291.645V309.414H293.239ZM286.017 309.414H287.619L287.37 314.278C287.337 315.009 287.268 315.684 287.162 316.304C287.057 316.918 286.927 317.48 286.772 317.989C286.617 318.498 286.44 318.954 286.241 319.358C286.042 319.757 285.829 320.103 285.602 320.396C285.375 320.684 285.137 320.922 284.888 321.11C284.645 321.292 284.398 321.423 284.149 321.5H283.419V320.197H283.933C284.077 320.042 284.241 319.818 284.423 319.524C284.611 319.231 284.797 318.852 284.979 318.387C285.167 317.917 285.331 317.344 285.469 316.669C285.613 315.994 285.71 315.197 285.76 314.278L286.017 309.414ZM295.899 317.109V316.918C295.899 316.271 295.993 315.67 296.181 315.117C296.37 314.558 296.641 314.074 296.995 313.664C297.349 313.249 297.778 312.928 298.282 312.701C298.785 312.469 299.35 312.353 299.975 312.353C300.606 312.353 301.173 312.469 301.677 312.701C302.186 312.928 302.617 313.249 302.971 313.664C303.331 314.074 303.605 314.558 303.793 315.117C303.981 315.67 304.075 316.271 304.075 316.918V317.109C304.075 317.756 303.981 318.357 303.793 318.91C303.605 319.464 303.331 319.948 302.971 320.363C302.617 320.772 302.188 321.093 301.685 321.326C301.187 321.553 300.622 321.666 299.991 321.666C299.361 321.666 298.793 321.553 298.29 321.326C297.786 321.093 297.355 320.772 296.995 320.363C296.641 319.948 296.37 319.464 296.181 318.91C295.993 318.357 295.899 317.756 295.899 317.109ZM297.435 316.918V317.109C297.435 317.557 297.487 317.98 297.593 318.379C297.698 318.772 297.855 319.12 298.066 319.425C298.282 319.729 298.55 319.97 298.871 320.147C299.192 320.319 299.565 320.404 299.991 320.404C300.412 320.404 300.78 320.319 301.095 320.147C301.416 319.97 301.682 319.729 301.892 319.425C302.103 319.12 302.26 318.772 302.365 318.379C302.476 317.98 302.532 317.557 302.532 317.109V316.918C302.532 316.475 302.476 316.057 302.365 315.665C302.26 315.266 302.1 314.915 301.884 314.61C301.674 314.3 301.408 314.057 301.087 313.88C300.772 313.703 300.401 313.614 299.975 313.614C299.554 313.614 299.184 313.703 298.863 313.88C298.547 314.057 298.282 314.3 298.066 314.61C297.855 314.915 297.698 315.266 297.593 315.665C297.487 316.057 297.435 316.475 297.435 316.918ZM311.592 308.609H312.854C312.854 309.151 312.771 309.583 312.605 309.904C312.439 310.219 312.212 310.463 311.924 310.634C311.642 310.806 311.321 310.936 310.961 311.024C310.607 311.113 310.239 311.199 309.857 311.282C309.381 311.381 308.938 311.539 308.529 311.755C308.125 311.965 307.776 312.264 307.483 312.651C307.195 313.039 306.982 313.542 306.844 314.162C306.711 314.782 306.675 315.548 306.736 316.461V317.225H305.474V316.461C305.474 315.438 305.571 314.544 305.765 313.78C305.964 313.017 306.244 312.372 306.603 311.846C306.963 311.32 307.389 310.903 307.882 310.593C308.38 310.283 308.927 310.07 309.525 309.954C309.957 309.871 310.327 309.782 310.637 309.688C310.947 309.588 311.182 309.456 311.343 309.29C311.509 309.124 311.592 308.897 311.592 308.609ZM309.774 313.033C310.361 313.033 310.884 313.136 311.343 313.34C311.802 313.545 312.192 313.83 312.513 314.195C312.834 314.561 313.078 314.992 313.244 315.49C313.415 315.983 313.501 316.52 313.501 317.101V317.283C313.501 317.909 313.41 318.49 313.227 319.026C313.05 319.558 312.787 320.022 312.439 320.421C312.096 320.814 311.675 321.121 311.177 321.342C310.684 321.564 310.123 321.674 309.492 321.674C308.861 321.674 308.297 321.564 307.799 321.342C307.306 321.121 306.885 320.814 306.537 320.421C306.188 320.022 305.923 319.558 305.74 319.026C305.563 318.49 305.474 317.909 305.474 317.283V317.101C305.474 316.962 305.499 316.827 305.549 316.694C305.599 316.561 305.66 316.425 305.732 316.287C305.809 316.149 305.878 316.002 305.939 315.847C306.144 315.349 306.423 314.887 306.778 314.461C307.137 314.035 307.566 313.692 308.064 313.432C308.568 313.166 309.138 313.033 309.774 313.033ZM309.475 314.287C308.911 314.287 308.446 314.417 308.081 314.677C307.721 314.937 307.453 315.283 307.276 315.714C307.098 316.14 307.01 316.603 307.01 317.101V317.283C307.01 317.704 307.06 318.102 307.159 318.479C307.259 318.855 307.408 319.19 307.608 319.483C307.812 319.771 308.07 319.998 308.38 320.164C308.695 320.33 309.066 320.413 309.492 320.413C309.918 320.413 310.286 320.33 310.596 320.164C310.906 319.998 311.16 319.771 311.36 319.483C311.559 319.19 311.708 318.855 311.808 318.479C311.907 318.102 311.957 317.704 311.957 317.283V317.101C311.957 316.724 311.907 316.367 311.808 316.03C311.708 315.692 311.556 315.393 311.351 315.133C311.152 314.873 310.895 314.668 310.579 314.519C310.269 314.364 309.901 314.287 309.475 314.287ZM320.37 319.964V315.341C320.37 314.987 320.298 314.68 320.154 314.419C320.016 314.154 319.806 313.949 319.524 313.805C319.241 313.661 318.893 313.589 318.478 313.589C318.09 313.589 317.75 313.656 317.457 313.789C317.169 313.921 316.942 314.096 316.776 314.312C316.615 314.527 316.535 314.76 316.535 315.009H315C315 314.688 315.083 314.37 315.249 314.054C315.415 313.739 315.653 313.454 315.963 313.199C316.278 312.939 316.654 312.734 317.091 312.585C317.534 312.43 318.027 312.353 318.569 312.353C319.222 312.353 319.797 312.463 320.296 312.685C320.799 312.906 321.192 313.241 321.474 313.689C321.762 314.132 321.906 314.688 321.906 315.357V319.541C321.906 319.84 321.931 320.158 321.981 320.496C322.036 320.833 322.116 321.124 322.221 321.367V321.5H320.619C320.542 321.323 320.481 321.088 320.437 320.794C320.392 320.496 320.37 320.219 320.37 319.964ZM320.636 316.055L320.652 317.134H319.1C318.663 317.134 318.273 317.17 317.93 317.242C317.587 317.308 317.299 317.41 317.067 317.549C316.834 317.687 316.657 317.861 316.535 318.072C316.414 318.277 316.353 318.517 316.353 318.794C316.353 319.076 316.416 319.333 316.544 319.566C316.671 319.798 316.862 319.984 317.116 320.122C317.376 320.255 317.695 320.321 318.071 320.321C318.541 320.321 318.956 320.222 319.316 320.022C319.676 319.823 319.961 319.58 320.171 319.292C320.387 319.004 320.503 318.725 320.52 318.454L321.175 319.192C321.137 319.425 321.032 319.682 320.86 319.964C320.688 320.247 320.459 320.518 320.171 320.778C319.889 321.032 319.551 321.245 319.158 321.417C318.771 321.583 318.334 321.666 317.847 321.666C317.238 321.666 316.704 321.547 316.245 321.309C315.791 321.071 315.437 320.753 315.182 320.354C314.933 319.951 314.809 319.5 314.809 319.001C314.809 318.52 314.903 318.097 315.091 317.731C315.279 317.361 315.55 317.054 315.904 316.81C316.259 316.561 316.685 316.373 317.183 316.246C317.681 316.118 318.237 316.055 318.851 316.055H320.636ZM328.368 317.549H325.421L325.405 316.32H327.812C328.288 316.32 328.684 316.273 328.999 316.179C329.32 316.085 329.561 315.944 329.721 315.756C329.882 315.568 329.962 315.335 329.962 315.059C329.962 314.843 329.915 314.655 329.821 314.494C329.732 314.328 329.597 314.193 329.414 314.087C329.231 313.977 329.005 313.896 328.733 313.847C328.468 313.791 328.155 313.764 327.795 313.764H325.828V321.5H324.292V312.519H327.795C328.365 312.519 328.877 312.568 329.331 312.668C329.79 312.768 330.181 312.92 330.501 313.125C330.828 313.324 331.077 313.578 331.249 313.888C331.42 314.198 331.506 314.563 331.506 314.984C331.506 315.255 331.451 315.512 331.34 315.756C331.229 315.999 331.066 316.215 330.85 316.403C330.634 316.591 330.369 316.746 330.053 316.868C329.738 316.984 329.375 317.059 328.966 317.092L328.368 317.549ZM328.368 321.5H324.865L325.629 320.255H328.368C328.794 320.255 329.148 320.202 329.431 320.097C329.713 319.986 329.923 319.832 330.062 319.632C330.205 319.428 330.277 319.184 330.277 318.902C330.277 318.62 330.205 318.379 330.062 318.18C329.923 317.975 329.713 317.82 329.431 317.715C329.148 317.604 328.794 317.549 328.368 317.549H326.036L326.052 316.32H328.966L329.522 316.785C330.015 316.824 330.432 316.946 330.775 317.15C331.119 317.355 331.379 317.615 331.556 317.931C331.733 318.241 331.821 318.578 331.821 318.943C331.821 319.364 331.741 319.735 331.581 320.056C331.426 320.377 331.199 320.645 330.9 320.861C330.601 321.071 330.239 321.232 329.813 321.342C329.386 321.447 328.905 321.5 328.368 321.5ZM335.37 319.068L339.512 312.519H341.056V321.5H339.512V314.951L335.37 321.5H333.843V312.519H335.37V319.068ZM347.012 312.519V321.5H345.468V312.519H347.012ZM350.025 312.519V313.764H342.513V312.519H350.025ZM352.628 315.606H355.325C356.05 315.606 356.662 315.734 357.16 315.988C357.658 316.237 358.034 316.583 358.289 317.026C358.549 317.463 358.679 317.961 358.679 318.52C358.679 318.935 358.607 319.325 358.463 319.69C358.319 320.05 358.103 320.366 357.816 320.637C357.533 320.908 357.182 321.121 356.762 321.276C356.346 321.425 355.868 321.5 355.325 321.5H351.507V312.519H353.043V320.238H355.325C355.768 320.238 356.122 320.158 356.388 319.998C356.654 319.837 356.845 319.63 356.961 319.375C357.077 319.12 357.135 318.855 357.135 318.578C357.135 318.307 357.077 318.041 356.961 317.781C356.845 317.521 356.654 317.305 356.388 317.134C356.122 316.957 355.768 316.868 355.325 316.868H352.628V315.606Z" fill="#294FB8"/>
    </g>
    <defs>
        <filter id="filter0_ddd_309_2167" x="-5" y="111" width="400" height="136" filterUnits="userSpaceOnUse" color-interpolation-filters="sRGB">
            <feFlood flood-opacity="0" result="BackgroundImageFix"/>
            <feColorMatrix in="SourceAlpha" type="matrix" values="0 0 0 0 0 0 0 0 0 0 0 0 0 0 0 0 0 0 127 0" result="hardAlpha"/>
            <feOffset dy="1"/>
            <feGaussianBlur stdDeviation="2.5"/>
            <feColorMatrix type="matrix" values="0 0 0 0 0 0 0 0 0 0 0 0 0 0 0 0 0 0 0.2 0"/>
            <feBlend mode="normal" in2="BackgroundImageFix" result="effect1_dropShadow_309_2167"/>
            <feColorMatrix in="SourceAlpha" type="matrix" values="0 0 0 0 0 0 0 0 0 0 0 0 0 0 0 0 0 0 127 0" result="hardAlpha"/>
            <feOffset dy="3"/>
            <feGaussianBlur stdDeviation="2"/>
            <feColorMatrix type="matrix" values="0 0 0 0 0 0 0 0 0 0 0 0 0 0 0 0 0 0 0.12 0"/>
            <feBlend mode="normal" in2="effect1_dropShadow_309_2167" result="effect2_dropShadow_309_2167"/>
            <feColorMatrix in="SourceAlpha" type="matrix" values="0 0 0 0 0 0 0 0 0 0 0 0 0 0 0 0 0 0 127 0" result="hardAlpha"/>
            <feOffset dy="2"/>
            <feGaussianBlur stdDeviation="2"/>
            <feColorMatrix type="matrix" values="0 0 0 0 0 0 0 0 0 0 0 0 0 0 0 0 0 0 0.14 0"/>
            <feBlend mode="normal" in2="effect2_dropShadow_309_2167" result="effect3_dropShadow_309_2167"/>
            <feBlend mode="normal" in="SourceGraphic" in2="effect3_dropShadow_309_2167" result="shape"/>
        </filter>
        <filter id="filter1_d_309_2167" x="16" y="178" width="171" height="44" filterUnits="userSpaceOnUse" color-interpolation-filters="sRGB">
            <feFlood flood-opacity="0" result="BackgroundImageFix"/>
            <feColorMatrix in="SourceAlpha" type="matrix" values="0 0 0 0 0 0 0 0 0 0 0 0 0 0 0 0 0 0 127 0" result="hardAlpha"/>
            <feOffset dy="2"/>
            <feGaussianBlur stdDeviation="1"/>
            <feComposite in2="hardAlpha" operator="out"/>
            <feColorMatrix type="matrix" values="0 0 0 0 0 0 0 0 0 0 0 0 0 0 0 0 0 0 0.15 0"/>
            <feBlend mode="normal" in2="BackgroundImageFix" result="effect1_dropShadow_309_2167"/>
            <feBlend mode="normal" in="SourceGraphic" in2="effect1_dropShadow_309_2167" result="shape"/>
        </filter>
        <linearGradient id="paint0_linear_309_2167" x1="380.384" y1="406.165" x2="-262.745" y2="592.624" gradientUnits="userSpaceOnUse">
            <stop stop-color="white"/>
            <stop offset="0.0001" stop-color="#CECECE"/>
        </linearGradient>
        <clipPath id="clip0_309_2167">
            <rect width="390" height="844" rx="30" fill="white"/>
        </clipPath>
    </defs>
</svg>
